<?xml version="1.0" standalone="no"?><!-- Generator: Adobe Fireworks CS6, Export SVG Extension by Aaron Beall (http://fireworks.abeall.com) . Version: 0.6.1  --><!DOCTYPE svg PUBLIC "-//W3C//DTD SVG 1.1//EN" "http://www.w3.org/Graphics/SVG/1.1/DTD/svg11.dtd"><svg id="Untitled-Page%201" viewBox="0 0 17 16" style="background-color:#ffffff00" version="1.1"	xmlns="http://www.w3.org/2000/svg" xmlns:xlink="http://www.w3.org/1999/xlink" xml:space="preserve"	x="0px" y="0px" width="17px" height="16px">	<g id="Layer%201">		<g>			<path d="M 14.3904 6.1086 L 16.0527 4.4473 C 16.5757 3.9243 16.6725 3.1725 16.2689 2.7689 L 13.7326 0.2325 C 13.329 -0.171 12.5773 -0.0742 12.0542 0.4489 L 10.3918 2.1102 L 14.3904 6.1086 Z" fill="#666666"/>			<path d="M 9.5368 2.9652 L 1.7854 10.7146 C 1.6956 10.8044 1.6344 10.916 1.616 11.0261 L 0.8916 15.1786 C 0.8727 15.2952 0.897 15.401 0.9681 15.4679 C 1.0346 15.5344 1.1364 15.5616 1.248 15.5447 L 5.4645 14.8843 C 5.5768 14.8667 5.692 14.8049 5.7839 14.7131 L 13.5353 6.9637 L 9.5368 2.9652 ZM 9.1578 4.2369 L 9.8244 4.9036 L 4.8417 9.8862 L 4.1752 9.2196 L 9.1578 4.2369 ZM 5.4211 14.0642 L 3.5357 14.3595 L 2.1088 12.9326 L 2.4308 11.0808 L 3.0389 10.4728 L 6.0257 13.4596 L 5.4211 14.0642 Z" fill="#666666"/>		</g>	</g></svg>