<?xml version="1.0" standalone="no"?><!-- Generator: Adobe Fireworks CS6, Export SVG Extension by Aaron Beall (http://fireworks.abeall.com) . Version: 0.6.1  --><!DOCTYPE svg PUBLIC "-//W3C//DTD SVG 1.1//EN" "http://www.w3.org/Graphics/SVG/1.1/DTD/svg11.dtd"><svg id="Untitled-Page%201" viewBox="0 0 17 16" style="background-color:#ffffff00" version="1.1"	xmlns="http://www.w3.org/2000/svg" xmlns:xlink="http://www.w3.org/1999/xlink" xml:space="preserve"	x="0px" y="0px" width="17px" height="16px">	<g id="Layer%201">		<path d="M 16.1212 13.7629 L 12.4425 10.0339 C 13.0675 9.0253 13.4303 7.833 13.4303 6.5536 C 13.4303 2.9338 10.5355 0 6.965 0 C 3.3944 0 0.5 2.9338 0.5 6.5536 C 0.5 10.1733 3.3943 13.1071 6.965 13.1071 C 8.3385 13.1071 9.6108 12.6718 10.6576 11.9321 L 14.2924 15.6169 C 14.545 15.8727 14.876 16 15.2067 16 C 15.5378 16 15.8685 15.8727 16.1215 15.6169 C 16.6262 15.1047 16.6262 14.275 16.1212 13.7629 ZM 6.965 10.9839 C 4.5516 10.9839 2.5951 9.0005 2.5951 6.554 C 2.5951 4.1073 4.5516 2.1238 6.965 2.1238 C 9.3785 2.1238 11.3351 4.1073 11.3351 6.554 C 11.3351 9.0005 9.3785 10.9839 6.965 10.9839 Z" fill="#666666"/>	</g></svg>