<?xml version="1.0" standalone="no"?><!-- Generator: Adobe Fireworks CS6, Export SVG Extension by Aaron Beall (http://fireworks.abeall.com) . Version: 0.6.1  --><!DOCTYPE svg PUBLIC "-//W3C//DTD SVG 1.1//EN" "http://www.w3.org/Graphics/SVG/1.1/DTD/svg11.dtd"><svg id="Untitled-Page%201" viewBox="0 0 13 16" style="background-color:#ffffff00" version="1.1"	xmlns="http://www.w3.org/2000/svg" xmlns:xlink="http://www.w3.org/1999/xlink" xml:space="preserve"	x="0px" y="0px" width="13px" height="16px">	<g id="Layer%201">		<g>			<path d="M 5 1.25 L 5.75 0.5 L 7.25 0.5 L 8 1.25 L 8 7.75 L 7.25 8.5 L 5.75 8.5 L 5 7.75 L 5 1.25 Z" fill="#162938"/>			<path d="M 0 9 C 0 12.5899 2.9102 15.5 6.5 15.5 C 10.0898 15.5 13 12.5899 13 9 C 13 6.296 11.349 3.9796 9 3 L 9 5.26 C 10.2061 6.0673 11 7.4398 11 9 C 11 11.4854 8.9854 13.5 6.5 13.5 C 4.0146 13.5 2 11.4854 2 9 C 2 7.4398 2.7939 6.0673 4 5.26 L 4 3 C 1.651 3.9796 0 6.296 0 9 Z" fill="#162938"/>		</g>	</g></svg>