<?xml version="1.0" standalone="no"?><!-- Generator: Adobe Fireworks CS6, Export SVG Extension by Aaron Beall (http://fireworks.abeall.com) . Version: 0.6.1  --><!DOCTYPE svg PUBLIC "-//W3C//DTD SVG 1.1//EN" "http://www.w3.org/Graphics/SVG/1.1/DTD/svg11.dtd"><svg id="Untitled-Page%201" viewBox="0 0 85 82" style="background-color:#ffffff00" version="1.1"	xmlns="http://www.w3.org/2000/svg" xmlns:xlink="http://www.w3.org/1999/xlink" xml:space="preserve"	x="0px" y="0px" width="85px" height="82px">	<g id="Layer%201">		<g>			<path d="M 19.584 0.0381 L 7.9541 0.0381 C 4.04 0.0381 0.8672 3.2109 0.8672 7.125 L 0.8672 16.7061 C 0.8672 20.6201 4.04 23.793 7.9541 23.793 L 19.584 23.793 C 23.498 23.793 26.6709 20.6201 26.6709 16.7061 L 26.6709 7.125 C 26.6709 3.2109 23.498 0.0381 19.584 0.0381 ZM 17.6104 16.0088 L 9.7188 16.0088 L 9.7188 8.0107 L 17.6104 8.0107 L 17.6104 16.0088 Z" fill="#ffffff"/>			<path d="M 48.3652 0.0381 L 36.7354 0.0381 C 32.8213 0.0381 29.6484 3.2109 29.6484 7.125 L 29.6484 16.7061 C 29.6484 20.6201 32.8213 23.793 36.7354 23.793 L 48.3652 23.793 C 52.2793 23.793 55.4521 20.6201 55.4521 16.7061 L 55.4521 7.125 C 55.4521 3.2109 52.2793 0.0381 48.3652 0.0381 ZM 46.3916 16.0088 L 38.5 16.0088 L 38.5 8.0107 L 46.3916 8.0107 L 46.3916 16.0088 Z" fill="#ffffff"/>			<path d="M 77.7002 0.0381 L 66.0703 0.0381 C 62.1563 0.0381 58.9834 3.2109 58.9834 7.125 L 58.9834 16.7061 C 58.9834 20.6201 62.1563 23.793 66.0703 23.793 L 77.7002 23.793 C 81.6143 23.793 84.7871 20.6201 84.7871 16.7061 L 84.7871 7.125 C 84.7871 3.2109 81.6143 0.0381 77.7002 0.0381 ZM 75.7266 16.0088 L 67.835 16.0088 L 67.835 8.0107 L 75.7266 8.0107 L 75.7266 16.0088 Z" fill="#ffffff"/>			<path d="M 19.584 29.3721 L 7.9541 29.3721 C 4.04 29.3721 0.8672 32.5449 0.8672 36.459 L 0.8672 46.04 C 0.8672 49.9541 4.04 53.127 7.9541 53.127 L 19.584 53.127 C 23.498 53.127 26.6709 49.9541 26.6709 46.04 L 26.6709 36.459 C 26.6709 32.5449 23.498 29.3721 19.584 29.3721 ZM 17.6104 45.3428 L 9.7188 45.3428 L 9.7188 37.3447 L 17.6104 37.3447 L 17.6104 45.3428 Z" fill="#ffffff"/>			<path d="M 48.3652 29.3721 L 36.7354 29.3721 C 32.8213 29.3721 29.6484 32.5449 29.6484 36.459 L 29.6484 46.04 C 29.6484 49.9541 32.8213 53.127 36.7354 53.127 L 48.3652 53.127 C 52.2793 53.127 55.4521 49.9541 55.4521 46.04 L 55.4521 36.459 C 55.4521 32.5449 52.2793 29.3721 48.3652 29.3721 ZM 46.3916 45.3428 L 38.5 45.3428 L 38.5 37.3447 L 46.3916 37.3447 L 46.3916 45.3428 Z" fill="#ffffff"/>			<path d="M 77.7002 29.3721 L 66.0703 29.3721 C 62.1563 29.3721 58.9834 32.5449 58.9834 36.459 L 58.9834 46.04 C 58.9834 49.9541 62.1563 53.127 66.0703 53.127 L 77.7002 53.127 C 81.6143 53.127 84.7871 49.9541 84.7871 46.04 L 84.7871 36.459 C 84.7871 32.5449 81.6143 29.3721 77.7002 29.3721 ZM 75.7266 45.3428 L 67.835 45.3428 L 67.835 37.3447 L 75.7266 37.3447 L 75.7266 45.3428 Z" fill="#ffffff"/>			<path d="M 19.584 57.876 L 7.9541 57.876 C 4.04 57.876 0.8672 61.0488 0.8672 64.9629 L 0.8672 74.5439 C 0.8672 78.458 4.04 81.6309 7.9541 81.6309 L 19.584 81.6309 C 23.498 81.6309 26.6709 78.458 26.6709 74.5439 L 26.6709 64.9629 C 26.6709 61.0488 23.498 57.876 19.584 57.876 ZM 17.6104 73.8467 L 9.7188 73.8467 L 9.7188 65.8486 L 17.6104 65.8486 L 17.6104 73.8467 Z" fill="#ffffff"/>			<path d="M 48.3652 57.876 L 36.7354 57.876 C 32.8213 57.876 29.6484 61.0488 29.6484 64.9629 L 29.6484 74.5439 C 29.6484 78.458 32.8213 81.6309 36.7354 81.6309 L 48.3652 81.6309 C 52.2793 81.6309 55.4521 78.458 55.4521 74.5439 L 55.4521 64.9629 C 55.4521 61.0488 52.2793 57.876 48.3652 57.876 ZM 46.3916 73.8467 L 38.5 73.8467 L 38.5 65.8486 L 46.3916 65.8486 L 46.3916 73.8467 Z" fill="#ffffff"/>			<path d="M 77.7002 57.876 L 66.0703 57.876 C 62.1563 57.876 58.9834 61.0488 58.9834 64.9629 L 58.9834 74.5439 C 58.9834 78.458 62.1563 81.6309 66.0703 81.6309 L 77.7002 81.6309 C 81.6143 81.6309 84.7871 78.458 84.7871 74.5439 L 84.7871 64.9629 C 84.7871 61.0488 81.6143 57.876 77.7002 57.876 ZM 75.7266 73.8467 L 67.835 73.8467 L 67.835 65.8486 L 75.7266 65.8486 L 75.7266 73.8467 Z" fill="#ffffff"/>		</g>	</g></svg>