<?xml version="1.0" standalone="no"?><!-- Generator: Adobe Fireworks CS6, Export SVG Extension by Aaron Beall (http://fireworks.abeall.com) . Version: 0.6.1  --><!DOCTYPE svg PUBLIC "-//W3C//DTD SVG 1.1//EN" "http://www.w3.org/Graphics/SVG/1.1/DTD/svg11.dtd"><svg id="Untitled-Page%201" viewBox="0 0 30 30" style="background-color:#ffffff00" version="1.1"	xmlns="http://www.w3.org/2000/svg" xmlns:xlink="http://www.w3.org/1999/xlink" xml:space="preserve"	x="0px" y="0px" width="30px" height="30px">	<g id="Layer%201">		<path d="M 15 0 C 6.7155 0 0 6.7159 0 15 C 0 23.2845 6.7155 30 15 30 C 23.2845 30 30 23.2845 30 15 C 30 6.7159 23.2845 0 15 0 ZM 15 5.2165 C 16.6561 5.2165 18.2145 5.6315 19.5825 6.3582 L 6.3582 19.5817 C 5.6315 18.2145 5.2165 16.6561 5.2165 15 C 5.2165 9.5972 9.5964 5.2165 15 5.2165 ZM 15 24.7835 C 13.3439 24.7835 11.7855 24.3685 10.4183 23.6426 L 23.6418 10.4183 C 24.3685 11.7859 24.7835 13.3439 24.7835 15 C 24.7835 20.4036 20.4036 24.7835 15 24.7835 Z" fill="#313131"/>	</g></svg>