<?xml version="1.0" standalone="no"?><!-- Generator: Adobe Fireworks CS6, Export SVG Extension by Aaron Beall (http://fireworks.abeall.com) . Version: 0.6.1  --><!DOCTYPE svg PUBLIC "-//W3C//DTD SVG 1.1//EN" "http://www.w3.org/Graphics/SVG/1.1/DTD/svg11.dtd"><svg id="Untitled-Page%201" viewBox="0 0 67 72" style="background-color:#ffffff00" version="1.1"	xmlns="http://www.w3.org/2000/svg" xmlns:xlink="http://www.w3.org/1999/xlink" xml:space="preserve"	x="0px" y="0px" width="67px" height="72px">	<g id="Layer%201">		<g>			<path d="M 59.3271 0.0273 L 7.6973 0.0273 C 3.7832 0.0273 0.6104 3.2002 0.6104 7.1143 L 0.6104 64.6953 C 0.6104 68.6094 3.7832 71.7822 7.6973 71.7822 L 59.3271 71.7822 C 63.2412 71.7822 66.4141 68.6094 66.4141 64.6953 L 66.4141 7.1143 C 66.4141 3.2002 63.2412 0.0273 59.3271 0.0273 ZM 56.3535 63.998 L 9.4619 63.998 L 9.4619 8 L 56.3535 8 L 56.3535 63.998 Z" fill="#ffffff"/>			<path d="M 29.5166 31.9883 L 16.4268 31.9883 L 16.4268 15.832 L 29.5166 15.832 L 29.5166 31.9883 Z" fill="#ffffff"/>			<path d="M 49.3281 23.9102 L 32.7012 23.9102 L 32.7012 15.832 L 49.3281 15.832 L 49.3281 23.9102 Z" fill="#ffffff"/>			<path d="M 49.3281 31.9883 L 32.7012 31.9883 L 32.7012 27.9785 L 49.3281 27.9785 L 49.3281 31.9883 Z" fill="#ffffff"/>			<path d="M 49.3281 39.915 L 28.4629 39.915 L 28.4629 35.9053 L 49.3281 35.9053 L 49.3281 39.915 Z" fill="#ffffff"/>			<path d="M 49.3281 55.8037 L 16.4268 55.8037 L 16.4268 51.7939 L 49.3281 51.7939 L 49.3281 55.8037 Z" fill="#ffffff"/>			<path d="M 25.3311 39.915 L 16.4268 39.915 L 16.4268 35.9053 L 25.3311 35.9053 L 25.3311 39.915 Z" fill="#ffffff"/>			<path d="M 16.4268 43.9922 L 37.292 43.9922 L 37.292 48.002 L 16.4268 48.002 L 16.4268 43.9922 Z" fill="#ffffff"/>			<path d="M 40.4238 43.9922 L 49.3281 43.9922 L 49.3281 48.002 L 40.4238 48.002 L 40.4238 43.9922 Z" fill="#ffffff"/>		</g>	</g></svg>