<?xml version="1.0" standalone="no"?><!-- Generator: Adobe Fireworks CS6, Export SVG Extension by Aaron Beall (http://fireworks.abeall.com) . Version: 0.6.1  --><!DOCTYPE svg PUBLIC "-//W3C//DTD SVG 1.1//EN" "http://www.w3.org/Graphics/SVG/1.1/DTD/svg11.dtd"><svg id="Untitled-Page%201" viewBox="0 0 118 82" style="background-color:#ffffff00" version="1.1"	xmlns="http://www.w3.org/2000/svg" xmlns:xlink="http://www.w3.org/1999/xlink" xml:space="preserve"	x="0px" y="0px" width="118px" height="82px">	<g id="Layer%201">		<g>			<path d="M 40.4736 12.125 C 40.4736 14.666 38.4131 16.7266 35.8711 16.7266 L 13.2827 16.7266 C 10.7412 16.7266 8.6807 14.666 8.6807 12.125 L 8.6807 12.125 C 8.6807 9.583 10.7412 7.5225 13.2827 7.5225 L 35.8711 7.5225 C 38.4131 7.5225 40.4736 9.583 40.4736 12.125 L 40.4736 12.125 Z" fill="#ffffff"/>			<path d="M 69.3389 17.3779 C 69.3389 21.292 66.166 24.4648 62.252 24.4648 L 60.2422 24.4648 C 56.3281 24.4648 53.1563 21.292 53.1563 17.3779 L 53.1563 7.916 C 53.1563 4.002 56.3281 0.8291 60.2422 0.8291 L 62.252 0.8291 C 66.166 0.8291 69.3389 4.002 69.3389 7.916 L 69.3389 17.3779 Z" fill="#ffffff"/>			<path d="M 42.2139 71.9482 C 14.0767 71.9482 1.5903 47.4102 1.0635 46.3467 C -0.1626 43.873 0.8491 40.873 3.3232 39.6465 C 5.7944 38.4229 8.7891 39.4297 10.0186 41.8965 C 10.4795 42.8096 20.7568 62.6201 43.4531 61.9287 C 46.1885 61.835 48.5215 64.0068 48.6094 66.7676 C 48.6963 69.5273 46.5303 71.8359 43.7695 71.9229 C 43.2471 71.9395 42.7266 71.9482 42.2139 71.9482 Z" fill="#ffffff"/>			<path d="M 117.3496 71.3809 L 117.3496 42.8809 C 117.3496 42.8809 110.5156 24.5479 107.5156 16.7266 C 104.5156 8.9053 95.6826 9.7139 95.6826 9.7139 C 85.6826 9.7139 84.3496 20.5479 84.3496 20.5479 L 84.1826 31.5479 C 84.1826 31.5479 76.6826 31.7139 72.1826 31.5479 C 67.6826 31.3818 63.1826 35.3809 63.5088 40.8809 C 63.835 46.3809 66.1826 47.5479 66.1826 49.3809 C 66.1826 51.2139 63.5156 50.0479 63.5088 56.0479 C 63.502 62.0479 66.5156 62.3809 66.3496 63.8809 C 66.1836 65.3809 63.5322 64.3789 63.5156 70.8809 C 63.4922 80.0029 71.8496 81.7139 71.8496 81.7139 C 71.8496 81.7139 95.1826 81.7139 106.5156 81.7139 C 117.8486 81.7139 117.3496 71.3809 117.3496 71.3809 ZM 108.0313 67.9707 C 108.0313 67.9707 108.0322 73.8271 103.2207 73.8271 C 98.4092 73.8271 77.2842 73.8271 77.2842 73.8271 C 77.2842 73.8271 73.7061 72.8799 73.7061 69.6455 C 73.7061 66.4111 79.7549 69.415 80.2129 63.8477 C 80.71 57.8027 73.5088 60.4561 73.5088 56.7891 C 73.5088 53.1221 79.7549 55.5371 80.0156 50.7559 C 80.291 45.7031 73.5039 49.0479 73.5088 44.29 C 73.5117 41.6826 77.2842 42.0977 77.2842 42.0977 L 92.3438 42.0977 C 92.3438 42.0977 96.1074 40.3604 95.2715 36.8047 C 94.4355 33.249 92.5527 31.1572 92.7617 28.8564 C 92.9707 26.5557 91.957 18.6074 95.3926 18.6074 C 98.8281 18.6074 104.8936 38.0605 104.8936 38.0605 L 108.0313 47.2637 L 108.0313 67.9707 Z" fill="#ffffff"/>		</g>	</g></svg>