<?xml version="1.0" standalone="no"?><!-- Generator: Adobe Fireworks CS6, Export SVG Extension by Aaron Beall (http://fireworks.abeall.com) . Version: 0.6.1  --><!DOCTYPE svg PUBLIC "-//W3C//DTD SVG 1.1//EN" "http://www.w3.org/Graphics/SVG/1.1/DTD/svg11.dtd"><svg id="Untitled-Page%201" viewBox="0 0 24 20" style="background-color:#ffffff00" version="1.1"	xmlns="http://www.w3.org/2000/svg" xmlns:xlink="http://www.w3.org/1999/xlink" xml:space="preserve"	x="0px" y="0px" width="24px" height="20px">	<g id="Layer%201">		<path d="M 23.1753 8.75 L 21 6.9385 L 21 2.5 C 21 1.8127 20.3247 1.25 19.5 1.25 L 18 1.25 C 17.1753 1.25 16.5 1.8127 16.5 2.5 L 16.5 3.1909 L 13.5 0.694 C 13.0898 0.3711 12.7156 0 12 0 C 11.2844 0 10.9094 0.3711 10.5 0.694 L 0.8247 8.75 C 0.3567 9.1565 0 9.4525 0 10 C 0 10.7031 0.6482 11.25 1.5 11.25 L 3 11.25 L 3 18.75 C 3 19.4373 3.6753 20 4.5 20 L 9 20 L 9 13.75 C 9 13.0627 9.6753 12.5 10.5 12.5 L 13.5 12.5 C 14.3247 12.5 15 13.0627 15 13.75 L 15 20 L 19.5 20 C 20.3247 20 21 19.4373 21 18.75 L 21 11.25 L 22.5 11.25 C 23.3525 11.25 24 10.7031 24 10 C 24 9.4525 23.6426 9.1565 23.1753 8.75 Z" fill="#FFFFFF"/>	</g></svg>