<?xml version="1.0" standalone="no"?><!-- Generator: Adobe Fireworks CS6, Export SVG Extension by Aaron Beall (http://fireworks.abeall.com) . Version: 0.6.1  --><!DOCTYPE svg PUBLIC "-//W3C//DTD SVG 1.1//EN" "http://www.w3.org/Graphics/SVG/1.1/DTD/svg11.dtd"><svg id="Untitled-Page%201" viewBox="0 0 23 22" style="background-color:#ffffff00" version="1.1"	xmlns="http://www.w3.org/2000/svg" xmlns:xlink="http://www.w3.org/1999/xlink" xml:space="preserve"	x="0px" y="0px" width="23px" height="22px">	<g id="Layer%201">		<path d="M 22.316 5.1906 C 22.679 5.7036 22.7607 6.2842 22.561 6.9324 L 18.8179 19.1654 C 18.6455 19.7415 18.2984 20.2253 17.7766 20.6169 C 17.2549 21.0085 16.6991 21.2042 16.1093 21.2042 L 3.546 21.2042 C 2.8473 21.2042 2.1736 20.9634 1.5248 20.4819 C 0.8759 20.0003 0.4245 19.4084 0.1704 18.7063 C -0.0473 18.1032 -0.0564 17.5316 0.1432 16.9915 C 0.1432 16.9555 5.987 1.0566 6.0777 0.9441 C 6.1685 0.8316 6.2887 0.7258 6.4384 0.6268 C 6.5882 0.5278 6.7515 0.476 6.9285 0.4716 C 7.1054 0.467 8.1376 0.4648 8.2555 0.4648 L 18.6137 0.4648 C 19.2852 0.4648 19.8025 0.7169 20.1654 1.2209 C 20.5284 1.725 20.6101 2.3101 20.4104 2.9762 L 16.6809 15.2092 C 16.3543 16.2804 16.0299 16.9713 15.7077 17.2818 C 15.3856 17.5924 14.8026 17.7477 13.9587 17.7477 L 2.1305 17.7477 C 1.8855 17.7477 1.7131 17.8152 1.6132 17.9502 C 1.5134 18.0942 1.5089 18.2878 1.5996 18.5308 C 1.8174 19.1609 2.4707 19.476 3.5596 19.476 L 16.1229 19.476 C 16.386 19.476 16.6401 19.4062 16.8851 19.2667 C 17.1301 19.1271 17.2889 18.9403 17.3615 18.7063 L 21.4449 5.3796 C 21.5084 5.1816 21.5311 4.925 21.513 4.61 C 21.8578 4.745 22.1255 4.9385 22.316 5.1906 ZM 7.8336 5.2176 C 7.7973 5.3346 7.8064 5.4359 7.8608 5.5214 C 7.9153 5.6069 8.006 5.6497 8.1331 5.6497 L 16.4087 5.6497 C 16.5267 5.6497 16.6424 5.6069 16.7558 5.5214 C 16.8692 5.4359 16.9441 5.3346 16.9804 5.2176 L 17.2662 4.3535 C 17.3025 4.2364 17.2935 4.1351 17.239 4.0496 C 17.1846 3.9641 17.0938 3.9214 16.9668 3.9214 L 8.6911 3.9214 C 8.5731 3.9214 8.4574 3.9641 8.344 4.0496 C 8.2306 4.1351 8.1557 4.2364 8.1194 4.3535 L 7.8336 5.2176 ZM 6.7039 8.6742 C 6.6676 8.7912 6.6766 8.8925 6.7311 8.978 C 6.7855 9.0635 6.8763 9.1062 7.0033 9.1062 L 15.279 9.1062 C 15.3969 9.1062 15.5126 9.0635 15.6261 8.978 C 15.7395 8.8925 15.8143 8.7912 15.8506 8.6742 L 16.1365 7.81 C 16.1728 7.693 16.1637 7.5917 16.1093 7.5062 C 16.0548 7.4207 15.9641 7.3779 15.837 7.3779 L 7.5614 7.3779 C 7.4434 7.3779 7.3277 7.4207 7.2143 7.5062 C 7.1009 7.5917 7.026 7.693 6.9897 7.81 L 6.7039 8.6742 Z" fill="#aaaaaa"/>	</g></svg>