<?xml version="1.0" standalone="no"?><!-- Generator: Adobe Fireworks CS6, Export SVG Extension by Aaron Beall (http://fireworks.abeall.com) . Version: 0.6.1  --><!DOCTYPE svg PUBLIC "-//W3C//DTD SVG 1.1//EN" "http://www.w3.org/Graphics/SVG/1.1/DTD/svg11.dtd"><svg id="Untitled-Page%201" viewBox="0 0 20 23" style="background-color:#ffffff00" version="1.1"	xmlns="http://www.w3.org/2000/svg" xmlns:xlink="http://www.w3.org/1999/xlink" xml:space="preserve"	x="0px" y="0px" width="20px" height="23px">	<g id="Layer%201">		<g>			<path d="M 19.1146 4.8773 C 19.3576 5.1168 19.566 5.442 19.7396 5.8527 C 19.9132 6.2634 20 6.6399 20 6.9821 L 20 21.7679 C 20 22.1101 19.8785 22.4011 19.6354 22.6406 C 19.3923 22.8802 19.0972 23 18.75 23 L 1.25 23 C 0.9028 23 0.6076 22.8802 0.3646 22.6406 C 0.1215 22.4011 0 22.1101 0 21.7679 L 0 1.2321 C 0 0.8899 0.1215 0.5989 0.3646 0.3594 C 0.6076 0.1198 0.9028 0 1.25 0 L 12.9167 0 C 13.2639 0 13.6458 0.0856 14.0625 0.2567 C 14.4792 0.4279 14.809 0.6332 15.0521 0.8727 L 19.1146 4.8773 ZM 13.3333 1.7455 L 13.3333 6.5714 L 18.2292 6.5714 C 18.1423 6.3233 18.0469 6.1479 17.9427 6.0452 L 13.8672 2.0279 C 13.763 1.9252 13.5851 1.8311 13.3333 1.7455 ZM 18.3333 21.3571 L 18.3333 8.2143 L 12.9167 8.2143 C 12.5695 8.2143 12.2743 8.0945 12.0313 7.8549 C 11.7882 7.6153 11.6667 7.3244 11.6667 6.9821 L 11.6667 1.6429 L 1.6667 1.6429 L 1.6667 21.3571 L 18.3333 21.3571 ZM 11.6406 13.7461 C 11.9271 13.9686 12.2917 14.2081 12.7344 14.4648 C 13.2465 14.405 13.7543 14.375 14.2578 14.375 C 15.5339 14.375 16.3021 14.5847 16.5625 15.0039 C 16.7014 15.1921 16.7101 15.4146 16.5886 15.6713 C 16.5886 15.6799 16.5842 15.6884 16.5755 15.697 L 16.5495 15.7227 L 16.5495 15.7355 C 16.4974 16.0606 16.1892 16.2232 15.625 16.2232 C 15.2083 16.2232 14.7092 16.1376 14.1276 15.9665 C 13.546 15.7954 12.9818 15.5687 12.4349 15.2863 C 10.5165 15.4916 8.8151 15.8467 7.3307 16.3516 C 6.0026 18.5934 4.9523 19.7143 4.1797 19.7143 C 4.0495 19.7143 3.9279 19.6843 3.8151 19.6245 L 3.5026 19.4704 C 3.4939 19.4619 3.4679 19.4405 3.4245 19.4063 C 3.3376 19.3207 3.3116 19.1667 3.3464 18.9442 C 3.4245 18.6019 3.6675 18.2104 4.0755 17.7698 C 4.4835 17.3292 5.0564 16.9163 5.7943 16.5313 C 5.9158 16.4542 6.0156 16.4799 6.0938 16.6083 C 6.1111 16.6254 6.1198 16.6425 6.1198 16.6596 C 6.5712 15.9323 7.0356 15.0895 7.513 14.1312 C 8.1033 12.9675 8.5547 11.8466 8.8672 10.7684 C 8.6589 10.0668 8.5265 9.3844 8.47 8.7213 C 8.4136 8.0581 8.4418 7.5126 8.5547 7.0848 C 8.6501 6.7426 8.8325 6.5714 9.1016 6.5714 L 9.388 6.5714 C 9.5876 6.5714 9.7396 6.6356 9.8438 6.764 C 10 6.9437 10.0391 7.2346 9.9609 7.6367 C 9.9436 7.688 9.9262 7.7223 9.9089 7.7394 C 9.9175 7.7651 9.9219 7.7993 9.9219 7.8421 L 9.9219 8.2271 C 9.9045 9.2796 9.8438 10.101 9.7396 10.6914 C 10.217 12.0947 10.8507 13.1129 11.6406 13.7461 ZM 4.1406 19.0212 C 4.592 18.8159 5.1866 18.1399 5.9245 16.9933 C 5.4818 17.3356 5.102 17.6949 4.7852 18.0714 C 4.4683 18.4479 4.2535 18.7645 4.1406 19.0212 ZM 9.3229 7.2132 C 9.1927 7.5726 9.184 8.1373 9.2969 8.9073 C 9.3055 8.8475 9.3359 8.6592 9.388 8.3427 C 9.388 8.317 9.4184 8.133 9.4792 7.7907 C 9.4879 7.7565 9.5052 7.7223 9.5313 7.688 C 9.5226 7.6795 9.5182 7.671 9.5182 7.6624 C 9.5182 7.6538 9.5161 7.6474 9.5117 7.6431 C 9.5074 7.6389 9.5052 7.6324 9.5052 7.6239 C 9.4965 7.4356 9.4401 7.2816 9.3359 7.1618 C 9.3359 7.1704 9.3316 7.179 9.3229 7.1875 L 9.3229 7.2132 ZM 7.7083 15.697 C 8.8802 15.2349 10.1129 14.8884 11.4063 14.6573 C 11.3889 14.6488 11.3325 14.6082 11.237 14.5355 C 11.1415 14.4627 11.072 14.405 11.0286 14.3622 C 10.3689 13.7889 9.8177 13.0359 9.375 12.1032 C 9.1406 12.8391 8.7804 13.6819 8.2943 14.6317 C 8.0339 15.1108 7.8386 15.4659 7.7083 15.697 ZM 16.1198 15.4916 C 15.9114 15.2863 15.3038 15.1836 14.2969 15.1836 C 14.9566 15.4232 15.4948 15.543 15.9114 15.543 C 16.033 15.543 16.1111 15.5387 16.1458 15.5302 C 16.1458 15.5215 16.1371 15.5087 16.1198 15.4916 Z" fill="#333333"/>		</g>	</g></svg>