<?xml version="1.0" standalone="no"?><!-- Generator: Adobe Fireworks CS6, Export SVG Extension by Aaron Beall (http://fireworks.abeall.com) . Version: 0.6.1  --><!DOCTYPE svg PUBLIC "-//W3C//DTD SVG 1.1//EN" "http://www.w3.org/Graphics/SVG/1.1/DTD/svg11.dtd"><svg id="Untitled-Page%201" viewBox="0 0 79 79" style="background-color:#ffffff00" version="1.1"	xmlns="http://www.w3.org/2000/svg" xmlns:xlink="http://www.w3.org/1999/xlink" xml:space="preserve"	x="0px" y="0px" width="79px" height="79px">	<g id="Layer%201">		<path d="M 76.4995 64.3774 L 60.5635 48.2256 C 63.2314 43.4741 64.6348 38.0503 64.6348 32.4409 C 64.6348 14.6372 50.3164 0.1528 32.7168 0.1528 C 15.1421 0.1528 0.8442 14.6372 0.8442 32.4409 C 0.8442 50.2695 15.1421 64.7739 32.7168 64.7739 C 38.6978 64.7739 44.4858 63.0938 49.5605 59.8994 L 65.2271 75.8247 C 66.7778 77.3184 68.7813 78.1411 70.8672 78.1411 C 72.9824 78.1411 74.979 77.3091 76.5044 75.7837 C 79.6392 72.584 79.6387 67.5752 76.4995 64.3774 ZM 32.7168 50.9292 C 22.7026 50.9292 14.5557 42.6353 14.5557 32.4409 C 14.5557 22.249 22.7026 13.957 32.7168 13.957 C 42.7817 13.957 50.9702 22.249 50.9702 32.4409 C 50.9702 42.6353 42.7817 50.9292 32.7168 50.9292 Z" fill="#ffffff"/>	</g></svg>