<?xml version="1.0" standalone="no"?><!-- Generator: Adobe Fireworks CS6, Export SVG Extension by Aaron Beall (http://fireworks.abeall.com) . Version: 0.6.1  --><!DOCTYPE svg PUBLIC "-//W3C//DTD SVG 1.1//EN" "http://www.w3.org/Graphics/SVG/1.1/DTD/svg11.dtd"><svg id="Untitled-Page%201" viewBox="0 0 86 46" style="background-color:#ffffff00" version="1.1"	xmlns="http://www.w3.org/2000/svg" xmlns:xlink="http://www.w3.org/1999/xlink" xml:space="preserve"	x="0px" y="0px" width="86px" height="46px">	<g id="Layer%201">		<g>			<g>				<g>					<path d="M 69.7642 22.8527 C 69.7642 23.8441 68.9456 24.6478 67.9353 24.6478 C 66.9249 24.6478 66.1055 23.8441 66.1055 22.8527 C 66.1055 21.8624 66.9249 21.061 67.9353 21.061 C 68.9456 21.061 69.7642 21.8624 69.7642 22.8527 ZM 74.4521 20.828 L 74.4521 22.0294 C 74.4521 22.4169 74.3212 22.7328 74.0598 22.975 C 73.7273 23.2909 73.3015 23.4125 72.7787 23.3387 C 72.3215 23.2684 71.7904 22.9459 71.4268 22.354 L 71.4268 9.3635 C 71.8536 8.8043 72.3036 8.4895 72.7787 8.4158 C 73.3015 8.343 73.7273 8.4641 74.0598 8.78 C 74.3212 9.0234 74.4521 9.3381 74.4521 9.7268 L 74.4521 20.828 ZM 76.1975 5.8796 C 75.6595 5.5171 74.9868 5.335 74.1794 5.335 C 73.0293 5.335 72.1122 5.7555 71.4268 6.5957 L 71.4268 0.2676 L 68.2126 0.2676 L 68.2126 18.2587 C 68.1871 18.778 67.9774 19.2416 67.39 19.4021 C 65.6802 19.658 64.3716 21.1058 64.3716 22.8527 C 64.3716 24.7834 65.9672 26.3486 67.9365 26.3486 C 68.8165 26.3486 69.6212 26.0328 70.2432 25.5153 L 70.275 25.4868 C 70.3632 25.4117 70.4488 25.3313 70.5286 25.2484 C 70.6519 25.1479 70.795 25.0656 70.9636 25.0656 C 71.179 25.0656 71.3361 25.1036 71.5133 25.2573 C 72.2098 26.026 73.0991 26.4122 74.1794 26.4122 L 74.3073 26.405 C 75.0713 26.3917 75.7151 26.2131 76.2324 25.8657 C 76.7717 25.5032 77.1445 25.0983 77.3536 24.649 C 77.5526 24.2255 77.6548 23.5065 77.6641 22.4993 L 77.667 22.3551 L 77.667 9.3915 C 77.667 8.3055 77.5565 7.5387 77.3358 7.0927 C 77.1145 6.646 76.7361 6.2408 76.1975 5.8796 ZM 82.5015 6.5654 L 82.5015 5.4584 L 79.324 5.4584 L 79.324 26.2313 L 82.5015 26.2313 L 82.5015 9.3271 C 82.9656 8.7716 83.4409 8.4556 83.9287 8.3831 C 84.4644 8.3104 84.9166 8.4308 85.2819 8.7462 L 85.2819 5.2634 C 84.1362 5.2634 83.2095 5.698 82.5015 6.5654 Z" fill="#ffffff"/>					<path d="M 10.2595 21.8322 C 10.2595 23.1166 9.8017 24.212 8.8887 25.12 C 7.9746 26.028 6.8633 26.4825 5.5548 26.4825 C 4.246 26.4825 3.1163 26.0292 2.1659 25.1224 C 1.2151 24.2157 0.7394 23.1227 0.7394 21.8406 L 0.7394 10.0559 C 0.7394 8.7751 1.2042 7.6821 2.1338 6.7748 C 3.0634 5.8688 4.1859 5.4147 5.4992 5.4147 C 6.8133 5.4147 7.9348 5.8682 8.8646 6.7731 C 9.7939 7.6779 10.2595 8.771 10.2595 10.0499 L 10.2595 17.4017 L 7.0737 17.4017 L 7.0737 9.9554 C 7.0737 9.5439 6.9191 9.1868 6.6106 8.8837 C 6.3016 8.5815 5.9375 8.4303 5.518 8.4303 C 5.0732 8.4303 4.6967 8.5756 4.3881 8.8666 C 4.0788 9.1583 3.9252 9.5221 3.9252 9.9591 L 3.9252 21.9381 C 3.9252 22.3745 4.0788 22.7388 4.3881 23.0306 C 4.6967 23.3218 5.0732 23.467 5.518 23.467 C 5.9375 23.467 6.3016 23.3138 6.6106 23.007 C 6.9191 22.7002 7.0737 22.3383 7.0737 21.9218 L 7.0737 20.7428 L 10.2595 20.7428 L 10.2595 21.8322 Z" fill="#ffffff"/>					<path d="M 21.519 21.8322 C 21.519 23.1166 21.0621 24.212 20.1486 25.12 C 19.2351 26.028 18.1237 26.4825 16.8151 26.4825 C 15.4816 26.4825 14.3451 26.0345 13.4071 25.1406 C 12.4686 24.2461 11.9997 23.1456 11.9997 21.8406 L 11.9997 10.0559 C 11.9997 8.7751 12.4642 7.6821 13.3938 6.7748 C 14.3231 5.8688 15.4459 5.4147 16.7596 5.4147 C 18.0731 5.4147 19.195 5.8682 20.1246 6.7736 C 21.054 7.6791 21.519 8.7716 21.519 10.0519 L 21.519 18.6726 L 15.1851 18.6726 L 15.1851 21.9303 C 15.1851 22.3456 15.3392 22.705 15.6482 23.01 C 15.9569 23.3151 16.3207 23.467 16.741 23.467 C 17.1855 23.467 17.5618 23.3199 17.8706 23.0258 C 18.1791 22.7316 18.3339 22.3624 18.3339 21.9218 L 18.3339 20.7428 L 21.519 20.7428 L 21.519 21.8322 ZM 18.3339 15.7667 L 18.3339 9.9554 C 18.3339 9.5197 18.1791 9.1565 17.8706 8.8649 C 17.5618 8.5756 17.1855 8.4303 16.741 8.4303 C 16.3207 8.4303 15.9569 8.5815 15.6482 8.8837 C 15.3392 9.1868 15.1851 9.5439 15.1851 9.9554 L 15.1851 15.7667 L 18.3339 15.7667 Z" fill="#ffffff"/>					<path d="M 39.4474 21.8406 C 39.4474 23.1227 38.9899 24.2157 38.0765 25.1224 C 37.1626 26.0292 36.0518 26.4825 34.7429 26.4825 C 34.1252 26.4825 33.5077 26.3245 32.8907 26.0104 C 32.1742 25.6714 31.7174 25.2472 31.5204 24.7386 C 31.3223 25.2472 30.8967 25.6647 30.2422 25.9916 C 29.588 26.3185 28.9648 26.4825 28.3717 26.4825 C 27.0624 26.4825 25.933 26.0292 24.9823 25.1224 C 24.0317 24.2157 23.5563 23.1227 23.5563 21.8406 L 23.5563 5.4147 L 26.7419 5.4147 L 26.7419 21.9412 C 26.7419 22.354 26.8961 22.7111 27.2051 23.0137 C 27.5137 23.3163 27.8774 23.467 28.2976 23.467 C 28.7423 23.467 29.1185 23.3218 29.4275 23.0317 C 29.7362 22.7407 29.8906 22.3782 29.8906 21.9412 L 29.8906 5.4147 L 33.0759 5.4147 L 33.0759 21.9412 C 33.0759 22.3782 33.2347 22.7407 33.5519 23.0317 C 33.8689 23.3218 34.2476 23.467 34.6874 23.467 C 35.126 23.467 35.4986 23.3218 35.804 23.0317 C 36.1089 22.7407 36.2618 22.3782 36.2618 21.9412 L 36.2618 5.4147 L 39.4474 5.4147 L 39.4474 21.8406 Z" fill="#ffffff"/>					<path d="M 50.8926 21.8322 C 50.8926 23.1166 50.4352 24.212 49.5217 25.12 C 48.6081 26.028 47.4971 26.4825 46.188 26.4825 C 44.8547 26.4825 43.7183 26.0345 42.7804 25.1406 C 41.8416 24.2461 41.3728 23.1456 41.3728 21.8406 L 41.3728 10.0559 C 41.3728 8.7751 41.8376 7.6821 42.7672 6.7748 C 43.6967 5.8688 44.8187 5.4147 46.1325 5.4147 C 47.4467 5.4147 48.5679 5.8682 49.4972 6.7736 C 50.4272 7.6791 50.8926 8.7716 50.8926 10.0519 L 50.8926 18.6726 L 44.5582 18.6726 L 44.5582 21.9303 C 44.5582 22.3456 44.7123 22.705 45.0212 23.01 C 45.3299 23.3151 45.6937 23.467 46.1143 23.467 C 46.5585 23.467 46.9349 23.3199 47.244 23.0258 C 47.5523 22.7316 47.7066 22.3624 47.7066 21.9218 L 47.7066 20.7428 L 50.8926 20.7428 L 50.8926 21.8322 ZM 47.7066 15.7667 L 47.7066 9.9554 C 47.7066 9.5197 47.5523 9.1565 47.244 8.8649 C 46.9349 8.5756 46.5585 8.4303 46.1143 8.4303 C 45.6937 8.4303 45.3299 8.5815 45.0212 8.8837 C 44.7123 9.1868 44.5582 9.5439 44.5582 9.9554 L 44.5582 15.7667 L 47.7066 15.7667 Z" fill="#ffffff"/>					<path d="M 61.9785 7.155 C 61.7578 6.7076 61.3789 6.3032 60.8408 5.9414 C 60.3024 5.5795 59.6294 5.3978 58.822 5.3978 C 57.6718 5.3978 56.7551 5.8173 56.0696 6.658 L 56.0696 0.3298 L 56.0441 0.3298 L 52.8585 0.3298 L 52.8553 0.3298 L 52.8553 18.3204 C 52.8547 18.3331 52.8579 18.3506 52.8585 18.3639 L 52.8585 26.3003 L 56.0441 26.3003 L 56.0441 25.2072 C 56.3365 25.548 56.6529 25.8154 56.9966 26.0159 C 57.4196 26.2604 57.8881 26.4038 58.4054 26.4535 C 58.4219 26.4546 58.4382 26.4565 58.4553 26.4576 C 58.5751 26.4674 58.6968 26.474 58.822 26.474 C 58.9557 26.474 59.0704 26.4686 59.17 26.457 C 59.8376 26.4165 60.4088 26.241 60.8751 25.9281 C 61.4146 25.5656 61.788 25.1599 61.9967 24.7114 C 62.1957 24.2877 62.2974 23.5693 62.3073 22.5621 C 62.3085 22.5162 62.3095 22.4689 62.3095 22.4169 L 62.3095 9.4537 C 62.3095 8.3673 62.1991 7.6005 61.9785 7.155 ZM 59.1325 22.0507 C 59.1325 22.5107 58.9632 22.8623 58.6257 23.1045 C 58.2876 23.3466 57.89 23.4313 57.4326 23.358 C 56.9495 23.286 56.4922 22.9713 56.0576 22.4132 L 56.0576 9.4102 C 56.4922 8.8539 56.9495 8.5386 57.4326 8.4659 C 57.89 8.3933 58.2876 8.4786 58.6257 8.7201 C 58.9632 8.9629 59.1325 9.3138 59.1325 9.7739 L 59.1325 22.0507 Z" fill="#ffffff"/>					<path d="M 3.0021 35.0695 C 3.0021 34.42 2.8685 34.1385 2.4541 34.1385 C 1.9888 34.1385 1.8805 34.595 1.8805 35.8569 C 1.8805 37.2067 2.0715 37.4506 2.467 37.4506 C 2.798 37.4506 3.0403 37.2819 3.0403 36.3193 L 3.958 36.3193 C 3.958 37.2819 3.7157 38.1128 2.5114 38.1128 C 1.1351 38.1128 0.9631 37.1504 0.9631 35.7946 C 0.9631 34.4382 1.1351 33.4764 2.5114 33.4764 C 3.8243 33.4764 3.9196 34.42 3.9196 35.0695 L 3.0021 35.0695 Z" fill="#ffffff"/>					<path d="M 5.2064 36.4762 L 5.2064 36.7437 C 5.2064 37.1377 5.3146 37.5258 5.6396 37.5258 C 5.9327 37.5258 6.0536 37.3065 6.1047 36.8944 L 6.8951 36.8944 C 6.863 37.6752 6.4809 38.1128 5.6524 38.1128 C 4.3779 38.1128 4.3271 37.1504 4.3271 36.3129 C 4.3271 35.4132 4.5052 34.5756 5.6906 34.5756 C 6.7163 34.5756 6.9459 35.2505 6.9459 36.2825 L 6.9459 36.4762 L 5.2064 36.4762 ZM 6.1047 35.9629 C 6.0857 35.4508 6.0219 35.1639 5.6586 35.1639 C 5.3084 35.1639 5.2064 35.5198 5.2064 35.8322 L 5.2064 35.9629 L 6.1047 35.9629 Z" fill="#ffffff"/>					<path d="M 7.4043 34.6639 L 8.2454 34.6639 L 8.2454 35.0568 L 8.2584 35.0568 C 8.443 34.7262 8.7617 34.5756 9.131 34.5756 C 9.6792 34.5756 10.0043 34.8698 10.0043 35.5319 L 10.0043 38.0256 L 9.1251 38.0256 L 9.1251 35.7068 C 9.1251 35.3691 9.0101 35.2384 8.7487 35.2384 C 8.4495 35.2384 8.2836 35.4193 8.2836 35.7946 L 8.2836 38.0256 L 7.4043 38.0256 L 7.4043 34.6639 Z" fill="#ffffff"/>					<path d="M 10.7811 33.7017 L 11.6606 33.7017 L 11.6606 34.6639 L 12.1702 34.6639 L 12.1702 35.2505 L 11.6606 35.2505 L 11.6606 37.0693 C 11.6606 37.332 11.7181 37.438 11.9727 37.438 C 12.0432 37.438 12.1129 37.4312 12.1702 37.4259 L 12.1702 38.0256 C 11.9794 38.0444 11.8008 38.0632 11.5969 38.0632 C 10.9087 38.0632 10.7811 37.8568 10.7811 37.1752 L 10.7811 35.2505 L 10.3352 35.2505 L 10.3352 34.6639 L 10.7811 34.6639 L 10.7811 33.7017 Z" fill="#ffffff"/>					<path d="M 12.4759 34.6639 L 13.317 34.6639 L 13.317 35.113 L 13.3297 35.113 C 13.5082 34.7886 13.7567 34.5756 14.1199 34.5756 C 14.1708 34.5756 14.2284 34.5817 14.2791 34.5889 L 14.2791 35.4132 C 14.1899 35.4072 14.0945 35.4011 14.0049 35.4011 C 13.6992 35.4011 13.3553 35.5574 13.3553 36.0065 L 13.3553 38.0256 L 12.4759 38.0256 L 12.4759 34.6639 Z" fill="#ffffff"/>					<path d="M 15.8336 34.5756 C 16.8914 34.5575 17.1845 35.176 17.1845 36.3442 C 17.1845 37.4943 16.8405 38.1128 15.8336 38.1128 C 14.7757 38.1316 14.4828 37.5125 14.4828 36.3442 C 14.4828 35.1942 14.8268 34.5756 15.8336 34.5756 ZM 15.8336 37.5258 C 16.1905 37.5258 16.3052 37.182 16.3052 36.3442 C 16.3052 35.5065 16.1905 35.1639 15.8336 35.1639 C 15.4003 35.1639 15.362 35.6573 15.362 36.3442 C 15.362 37.0319 15.4003 37.5258 15.8336 37.5258 Z" fill="#ffffff"/>					<path d="M 20.9435 37.6697 L 20.9307 37.6697 C 20.7397 37.9821 20.4976 38.1128 20.1533 38.1128 C 19.4335 38.1128 19.1019 37.5941 19.1019 36.3442 C 19.1019 35.0948 19.4335 34.5756 20.1533 34.5756 C 20.4848 34.5756 20.7075 34.7069 20.8925 34.9762 L 20.9053 34.9762 L 20.9053 33.5642 L 21.7846 33.5642 L 21.7846 38.0256 L 20.9435 38.0256 L 20.9435 37.6697 ZM 20.44 37.4506 C 20.8286 37.4506 20.9053 37.0754 20.9053 36.3442 C 20.9053 35.613 20.8286 35.2384 20.44 35.2384 C 20.0577 35.2384 19.9815 35.613 19.9815 36.3442 C 19.9815 37.0754 20.0577 37.4506 20.44 37.4506 Z" fill="#ffffff"/>					<path d="M 23.1223 36.4762 L 23.1223 36.7437 C 23.1223 37.1377 23.2308 37.5258 23.5559 37.5258 C 23.8487 37.5258 23.97 37.3065 24.0208 36.8944 L 24.811 36.8944 C 24.7791 37.6752 24.3969 38.1128 23.5682 38.1128 C 22.2941 38.1128 22.2429 37.1504 22.2429 36.3129 C 22.2429 35.4132 22.4217 34.5756 23.6069 34.5756 C 24.6325 34.5756 24.8621 35.2505 24.8621 36.2825 L 24.8621 36.4762 L 23.1223 36.4762 ZM 24.0208 35.9629 C 24.0019 35.4508 23.9381 35.1639 23.5747 35.1639 C 23.2243 35.1639 23.1223 35.5198 23.1223 35.8322 L 23.1223 35.9629 L 24.0208 35.9629 Z" fill="#ffffff"/>					<path d="M 29.4178 33.5642 L 29.4178 34.3014 L 27.7927 34.3014 L 27.7927 35.351 L 29.3223 35.351 L 29.3223 36.0883 L 27.7927 36.0883 L 27.7927 37.2883 L 29.4813 37.2883 L 29.4813 38.0256 L 26.8754 38.0256 L 26.8754 33.5642 L 29.4178 33.5642 Z" fill="#ffffff"/>					<path d="M 30.5576 36.9253 L 30.5576 37.038 C 30.5576 37.332 30.717 37.5258 31.0167 37.5258 C 31.2844 37.5258 31.4625 37.3937 31.4625 37.1256 C 31.4625 36.9071 31.316 36.8066 31.144 36.7437 L 30.526 36.5258 C 30.0416 36.3568 29.793 36.0634 29.793 35.5881 C 29.793 35.032 30.1501 34.5756 31.0549 34.5756 C 31.8512 34.5756 32.2274 34.9254 32.2274 35.5319 L 32.2274 35.6699 L 31.437 35.6699 C 31.437 35.3323 31.3353 35.1639 31.0483 35.1639 C 30.8254 35.1639 30.6343 35.288 30.6343 35.5259 C 30.6343 35.688 30.7234 35.8256 31.0167 35.9193 L 31.5453 36.0948 C 32.0999 36.2758 32.3036 36.5507 32.3036 37.0566 C 32.3036 37.7631 31.7684 38.1128 31.0292 38.1128 C 30.0416 38.1128 29.7674 37.6879 29.7674 37.0444 L 29.7674 36.9253 L 30.5576 36.9253 Z" fill="#ffffff"/>					<path d="M 32.9342 33.7017 L 33.8134 33.7017 L 33.8134 34.6639 L 34.3234 34.6639 L 34.3234 35.2505 L 33.8134 35.2505 L 33.8134 37.0693 C 33.8134 37.332 33.8709 37.438 34.1259 37.438 C 34.1957 37.438 34.2657 37.4312 34.3234 37.4259 L 34.3234 38.0256 C 34.132 38.0444 33.9535 38.0632 33.7495 38.0632 C 33.0615 38.0632 32.9342 37.8568 32.9342 37.1752 L 32.9342 35.2505 L 32.4879 35.2505 L 32.4879 34.6639 L 32.9342 34.6639 L 32.9342 33.7017 Z" fill="#ffffff"/>					<path d="M 36.3876 37.6311 L 36.3746 37.6311 C 36.1902 37.9626 35.8712 38.1128 35.5018 38.1128 C 34.9537 38.1128 34.6288 37.8192 34.6288 37.1571 L 34.6288 34.6639 L 35.5081 34.6639 L 35.5081 36.9816 C 35.5081 37.3193 35.6227 37.4506 35.8838 37.4506 C 36.1837 37.4506 36.3492 37.269 36.3492 36.8944 L 36.3492 34.6639 L 37.2286 34.6639 L 37.2286 38.0256 L 36.3876 38.0256 L 36.3876 37.6311 Z" fill="#ffffff"/>					<path d="M 39.5733 37.6697 L 39.5608 37.6697 C 39.3694 37.9821 39.127 38.1128 38.783 38.1128 C 38.0629 38.1128 37.7319 37.5941 37.7319 36.3442 C 37.7319 35.0948 38.0629 34.5756 38.783 34.5756 C 39.1145 34.5756 39.3374 34.7069 39.5222 34.9762 L 39.5348 34.9762 L 39.5348 33.5642 L 40.4145 33.5642 L 40.4145 38.0256 L 39.5733 38.0256 L 39.5733 37.6697 ZM 39.0699 37.4506 C 39.4585 37.4506 39.5348 37.0754 39.5348 36.3442 C 39.5348 35.613 39.4585 35.2384 39.0699 35.2384 C 38.6874 35.2384 38.6108 35.613 38.6108 36.3442 C 38.6108 37.0754 38.6874 37.4506 39.0699 37.4506 Z" fill="#ffffff"/>					<path d="M 42.2363 34.5756 C 43.2939 34.5575 43.5873 35.176 43.5873 36.3442 C 43.5873 37.4943 43.2432 38.1128 42.2363 38.1128 C 41.1785 38.1316 40.8855 37.5125 40.8855 36.3442 C 40.8855 35.1942 41.2298 34.5756 42.2363 34.5756 ZM 42.2363 37.5258 C 42.5933 37.5258 42.708 37.182 42.708 36.3442 C 42.708 35.5065 42.5933 35.1639 42.2363 35.1639 C 41.8033 35.1639 41.7648 35.6573 41.7648 36.3442 C 41.7648 37.0319 41.8033 37.5258 42.2363 37.5258 Z" fill="#ffffff"/>					<path d="M 44.7016 36.9253 L 44.7016 37.038 C 44.7016 37.332 44.8611 37.5258 45.1613 37.5258 C 45.4288 37.5258 45.6068 37.3937 45.6068 37.1256 C 45.6068 36.9071 45.4603 36.8066 45.2883 36.7437 L 44.67 36.5258 C 44.1855 36.3568 43.9373 36.0634 43.9373 35.5881 C 43.9373 35.032 44.2944 34.5756 45.1993 34.5756 C 45.9954 34.5756 46.3717 34.9254 46.3717 35.5319 L 46.3717 35.6699 L 45.5817 35.6699 C 45.5817 35.3323 45.4794 35.1639 45.1928 35.1639 C 44.9693 35.1639 44.7784 35.288 44.7784 35.5259 C 44.7784 35.688 44.868 35.8256 45.1613 35.9193 L 45.6896 36.0948 C 46.2441 36.2758 46.4478 36.5507 46.4478 37.0566 C 46.4478 37.7631 45.9125 38.1128 45.1737 38.1128 C 44.1855 38.1128 43.9116 37.6879 43.9116 37.0444 L 43.9116 36.9253 L 44.7016 36.9253 Z" fill="#ffffff"/>					<path d="M 49.06 36.9253 L 49.06 37.038 C 49.06 37.332 49.2192 37.5258 49.5189 37.5258 C 49.7863 37.5258 49.9646 37.3937 49.9646 37.1256 C 49.9646 36.9071 49.8182 36.8066 49.6463 36.7437 L 49.0278 36.5258 C 48.544 36.3568 48.2955 36.0634 48.2955 35.5881 C 48.2955 35.032 48.6522 34.5756 49.5565 34.5756 C 50.3536 34.5756 50.7296 34.9254 50.7296 35.5319 L 50.7296 35.6699 L 49.9392 35.6699 C 49.9392 35.3323 49.8372 35.1639 49.5506 35.1639 C 49.3275 35.1639 49.1362 35.288 49.1362 35.5259 C 49.1362 35.688 49.2258 35.8256 49.5189 35.9193 L 50.0475 36.0948 C 50.6019 36.2758 50.806 36.5507 50.806 37.0566 C 50.806 37.7631 50.2706 38.1128 49.5316 38.1128 C 48.544 38.1128 48.2701 37.6879 48.2701 37.0444 L 48.2701 36.9253 L 49.06 36.9253 Z" fill="#ffffff"/>					<path d="M 52.4814 34.5756 C 53.5395 34.5575 53.8322 35.176 53.8322 36.3442 C 53.8322 37.4943 53.488 38.1128 52.4814 38.1128 C 51.4233 38.1316 51.1306 37.5125 51.1306 36.3442 C 51.1306 35.1942 51.4745 34.5756 52.4814 34.5756 ZM 52.4814 37.5258 C 52.838 37.5258 52.953 37.182 52.953 36.3442 C 52.953 35.5065 52.838 35.1639 52.4814 35.1639 C 52.048 35.1639 52.0096 35.6573 52.0096 36.3442 C 52.0096 37.0319 52.048 37.5258 52.4814 37.5258 Z" fill="#ffffff"/>					<path d="M 54.3033 33.5642 L 55.1826 33.5642 L 55.1826 34.9762 L 55.1953 34.9762 C 55.3804 34.7069 55.6036 34.5756 55.9346 34.5756 C 56.655 34.5756 56.9858 35.0948 56.9858 36.3442 C 56.9858 37.5941 56.655 38.1128 55.9346 38.1128 C 55.5906 38.1128 55.3485 37.9821 55.1575 37.6697 L 55.1444 37.6697 L 55.1444 38.0256 L 54.3033 38.0256 L 54.3033 33.5642 ZM 55.6478 37.4506 C 56.0302 37.4506 56.1066 37.0754 56.1066 36.3442 C 56.1066 35.613 56.0302 35.2384 55.6478 35.2384 C 55.2591 35.2384 55.1826 35.613 55.1826 36.3442 C 55.1826 37.0754 55.2591 37.4506 55.6478 37.4506 Z" fill="#ffffff"/>					<path d="M 57.4893 34.6639 L 58.3304 34.6639 L 58.3304 35.113 L 58.3427 35.113 C 58.5214 34.7886 58.7699 34.5756 59.1332 34.5756 C 59.1838 34.5756 59.2415 34.5817 59.2927 34.5889 L 59.2927 35.4132 C 59.2036 35.4072 59.1075 35.4011 59.0184 35.4011 C 58.7126 35.4011 58.3686 35.5574 58.3686 36.0065 L 58.3686 38.0256 L 57.4893 38.0256 L 57.4893 34.6639 Z" fill="#ffffff"/>					<path d="M 60.3623 36.4762 L 60.3623 36.7437 C 60.3623 37.1377 60.4709 37.5258 60.796 37.5258 C 61.0892 37.5258 61.2102 37.3065 61.2613 36.8944 L 62.0508 36.8944 C 62.0193 37.6752 61.637 38.1128 60.8084 38.1128 C 59.5344 38.1128 59.4832 37.1504 59.4832 36.3129 C 59.4832 35.4132 59.6616 34.5756 60.8466 34.5756 C 61.873 34.5756 62.1022 35.2505 62.1022 36.2825 L 62.1022 36.4762 L 60.3623 36.4762 ZM 61.2613 35.9629 C 61.2421 35.4508 61.1783 35.1639 60.8149 35.1639 C 60.4645 35.1639 60.3623 35.5198 60.3623 35.8322 L 60.3623 35.9629 L 61.2613 35.9629 Z" fill="#ffffff"/>					<path d="M 3.722 40.2543 L 3.722 40.9916 L 2.7277 40.9916 L 2.7277 44.7151 L 1.8102 44.7151 L 1.8102 40.9916 L 0.8164 40.9916 L 0.8164 40.2543 L 3.722 40.2543 Z" fill="#ffffff"/>					<path d="M 4.3719 43.1656 L 4.3719 43.4344 C 4.3719 43.8278 4.48 44.2152 4.805 44.2152 C 5.0982 44.2152 5.2194 43.9972 5.2702 43.5845 L 6.0603 43.5845 C 6.0287 44.3658 5.6462 44.8029 4.8177 44.8029 C 3.5433 44.8029 3.4923 43.8398 3.4923 43.0035 C 3.4923 42.1034 3.6709 41.2662 4.8558 41.2662 C 5.8817 41.2662 6.1113 41.9406 6.1113 42.9718 L 6.1113 43.1656 L 4.3719 43.1656 ZM 5.2702 42.653 C 5.2511 42.1409 5.187 41.8534 4.8239 41.8534 C 4.4738 41.8534 4.3719 42.2092 4.3719 42.5216 L 4.3719 42.653 L 5.2702 42.653 Z" fill="#ffffff"/>					<path d="M 8.2201 42.5664 C 8.2201 42.2407 8.1563 41.891 7.825 41.891 C 7.3918 41.891 7.3215 42.2662 7.3215 43.041 C 7.3215 43.8719 7.3981 44.2152 7.7932 44.2152 C 8.0864 44.2152 8.2201 43.9718 8.2201 43.4283 L 9.0612 43.4283 C 9.0612 44.3096 8.6853 44.8029 7.7553 44.8029 C 6.8757 44.8029 6.4422 44.3842 6.4422 43.0342 C 6.4422 41.6536 7.022 41.2662 7.8314 41.2662 C 8.6407 41.2662 9.0612 41.7722 9.0612 42.5664 L 8.2201 42.5664 Z" fill="#ffffff"/>					<path d="M 9.5195 41.3534 L 10.361 41.3534 L 10.361 41.7474 L 10.3737 41.7474 C 10.5585 41.4164 10.8771 41.2662 11.2465 41.2662 C 11.7944 41.2662 12.1196 41.5598 12.1196 42.222 L 12.1196 44.7151 L 11.2402 44.7151 L 11.2402 42.3969 C 11.2402 42.0598 11.1255 41.9285 10.8646 41.9285 C 10.565 41.9285 10.3992 42.11 10.3992 42.4847 L 10.3992 44.7151 L 9.5195 44.7151 L 9.5195 41.3534 Z" fill="#ffffff"/>					<path d="M 13.9418 41.2662 C 14.9999 41.2474 15.293 41.8661 15.293 43.0342 C 15.293 44.1843 14.9487 44.8029 13.9418 44.8029 C 12.884 44.8217 12.5909 44.2031 12.5909 43.0342 C 12.5909 41.8849 12.935 41.2662 13.9418 41.2662 ZM 13.9418 44.2152 C 14.2989 44.2152 14.4134 43.8719 14.4134 43.0342 C 14.4134 42.1971 14.2989 41.8534 13.9418 41.8534 C 13.5084 41.8534 13.4702 42.3473 13.4702 43.0342 C 13.4702 43.7218 13.5084 44.2152 13.9418 44.2152 Z" fill="#ffffff"/>					<path d="M 15.7957 40.2543 L 16.675 40.2543 L 16.675 44.7151 L 15.7957 44.7151 L 15.7957 40.2543 Z" fill="#ffffff"/>					<path d="M 18.5289 41.2662 C 19.5867 41.2474 19.8798 41.8661 19.8798 43.0342 C 19.8798 44.1843 19.536 44.8029 18.5289 44.8029 C 17.4712 44.8217 17.1782 44.2031 17.1782 43.0342 C 17.1782 41.8849 17.5223 41.2662 18.5289 41.2662 ZM 18.5289 44.2152 C 18.8859 44.2152 19.0005 43.8719 19.0005 43.0342 C 19.0005 42.1971 18.8859 41.8534 18.5289 41.8534 C 18.0956 41.8534 18.0576 42.3473 18.0576 43.0342 C 18.0576 43.7218 18.0956 44.2152 18.5289 44.2152 Z" fill="#ffffff"/>					<path d="M 22.9191 41.3534 L 22.9191 44.5469 C 22.9191 45.4342 22.5178 45.8651 21.4919 45.8651 C 20.7462 45.8651 20.3256 45.5402 20.3256 44.9651 L 21.1667 44.9651 C 21.1667 45.0782 21.2179 45.1654 21.3007 45.2212 C 21.3839 45.2775 21.4854 45.3156 21.5935 45.3156 C 21.9507 45.3156 22.0778 45.0529 22.0778 44.7091 L 22.0778 44.2655 L 22.0654 44.2655 C 21.8871 44.5154 21.6128 44.6775 21.3325 44.6775 C 20.6316 44.6775 20.2811 44.2091 20.2811 42.9779 C 20.2811 42.1912 20.4021 41.2662 21.358 41.2662 C 21.6 41.2662 21.8995 41.3788 22.0654 41.7286 L 22.0778 41.7286 L 22.0778 41.3534 L 22.9191 41.3534 ZM 21.6 44.0155 C 21.9698 44.0155 22.0778 43.6219 22.0778 43.053 C 22.0778 42.2347 21.9698 41.9285 21.6192 41.9285 C 21.2303 41.9285 21.1605 42.2347 21.1605 43.1407 C 21.1605 43.6031 21.2303 44.0155 21.6 44.0155 Z" fill="#ffffff"/>					<path d="M 23.569 40.2034 L 24.4482 40.2034 L 24.4482 40.9413 L 23.569 40.9413 L 23.569 40.2034 ZM 23.569 41.3534 L 24.4482 41.3534 L 24.4482 44.7151 L 23.569 44.7151 L 23.569 41.3534 Z" fill="#ffffff"/>					<path d="M 25.0597 42.3842 L 25.0597 42.3037 C 25.0597 41.5283 25.6012 41.2662 26.2635 41.2662 C 27.309 41.2662 27.5067 41.6912 27.5067 42.2971 L 27.5067 44.0656 C 27.5067 44.3781 27.5256 44.5221 27.6149 44.7151 L 26.7737 44.7151 C 26.7166 44.6093 26.6909 44.4779 26.6655 44.3658 L 26.6528 44.3658 C 26.4488 44.7151 26.2001 44.8029 25.7795 44.8029 C 25.1678 44.8029 24.9516 44.2902 24.9516 43.8398 C 24.9516 43.2098 25.2123 42.9531 25.8179 42.7903 L 26.3147 42.6597 C 26.576 42.5906 26.6655 42.4908 26.6655 42.2662 C 26.6655 42.0101 26.5508 41.8534 26.2578 41.8534 C 25.9902 41.8534 25.8497 42.0289 25.8497 42.2904 L 25.8497 42.3842 L 25.0597 42.3842 ZM 26.6655 43.0342 C 26.5443 43.1219 26.3975 43.1783 26.2895 43.2031 C 25.9327 43.2782 25.7924 43.4478 25.7924 43.7467 C 25.7924 44.0033 25.8879 44.2152 26.124 44.2152 C 26.3596 44.2152 26.6655 44.0656 26.6655 43.697 L 26.6655 43.0342 Z" fill="#ffffff"/>					<path d="M 28.7741 43.616 L 28.7741 43.7286 C 28.7741 44.0216 28.9335 44.2152 29.2328 44.2152 C 29.5004 44.2152 29.6792 44.0844 29.6792 43.8157 C 29.6792 43.5967 29.5322 43.4973 29.3603 43.4344 L 28.7423 43.2152 C 28.258 43.047 28.0096 42.7534 28.0096 42.2783 C 28.0096 41.722 28.3665 41.2662 29.2713 41.2662 C 30.0675 41.2662 30.4435 41.6161 30.4435 42.222 L 30.4435 42.3594 L 29.6533 42.3594 C 29.6533 42.0216 29.5516 41.8534 29.2648 41.8534 C 29.0418 41.8534 28.8504 41.9781 28.8504 42.2166 C 28.8504 42.3787 28.9398 42.5162 29.2328 42.61 L 29.7618 42.7843 C 30.3163 42.9659 30.52 43.2406 30.52 43.7467 C 30.52 44.4537 29.9849 44.8029 29.2455 44.8029 C 28.258 44.8029 27.984 44.3781 27.984 43.7346 L 27.984 43.616 L 28.7741 43.616 Z" fill="#ffffff"/>					<path d="M 32.2463 40.2543 L 33.1256 40.2543 L 33.6289 43.553 L 33.6419 43.553 L 34.1769 40.2543 L 35.0564 40.2543 L 35.5917 43.553 L 35.6046 43.553 L 36.1078 40.2543 L 36.9872 40.2543 L 36.1589 44.7151 L 35.1328 44.7151 L 34.6229 41.4788 L 34.6106 41.4788 L 34.1003 44.7151 L 33.0748 44.7151 L 32.2463 40.2543 Z" fill="#ffffff"/>					<path d="M 37.9678 43.1656 L 37.9678 43.4344 C 37.9678 43.8278 38.0763 44.2152 38.4013 44.2152 C 38.6948 44.2152 38.8156 43.9972 38.8664 43.5845 L 39.6567 43.5845 C 39.6248 44.3658 39.2424 44.8029 38.4139 44.8029 C 37.1395 44.8029 37.0886 43.8398 37.0886 43.0035 C 37.0886 42.1034 37.2675 41.2662 38.4521 41.2662 C 39.4782 41.2662 39.7076 41.9406 39.7076 42.9718 L 39.7076 43.1656 L 37.9678 43.1656 ZM 38.8664 42.653 C 38.8474 42.1409 38.7835 41.8534 38.4204 41.8534 C 38.07 41.8534 37.9678 42.2092 37.9678 42.5216 L 37.9678 42.653 L 38.8664 42.653 Z" fill="#ffffff"/>					<path d="M 40.1662 40.2543 L 41.0457 40.2543 L 41.0457 41.6658 L 41.0582 41.6658 C 41.2427 41.3971 41.4662 41.2662 41.7973 41.2662 C 42.5173 41.2662 42.8488 41.7844 42.8488 43.0342 C 42.8488 44.2842 42.5173 44.8029 41.7973 44.8029 C 41.4533 44.8029 41.211 44.6715 41.0198 44.3593 L 41.007 44.3593 L 41.007 44.7151 L 40.1662 44.7151 L 40.1662 40.2543 ZM 41.5104 44.14 C 41.8931 44.14 41.9693 43.7661 41.9693 43.0342 C 41.9693 42.3037 41.8931 41.9285 41.5104 41.9285 C 41.1218 41.9285 41.0457 42.3037 41.0457 43.0342 C 41.0457 43.7661 41.1218 44.14 41.5104 44.14 Z" fill="#ffffff"/>				</g>			</g>		</g>	</g></svg>