<?xml version="1.0" encoding="utf-8"?>
<!-- Generator: Adobe Illustrator 21.1.0, SVG Export Plug-In . SVG Version: 6.00 Build 0)  -->
<svg version="1.1" id="Camada_1" xmlns="http://www.w3.org/2000/svg" xmlns:xlink="http://www.w3.org/1999/xlink" x="0px" y="0px"
	 viewBox="0 0 86 80" style="enable-background:new 0 0 86 80;" xml:space="preserve">
<style type="text/css">
	.st0{fill-rule:evenodd;clip-rule:evenodd;fill:#B7303E;}
	.st1{fill-rule:evenodd;clip-rule:evenodd;fill:#FFFFFF;}
</style>
<rect class="st0" width="86" height="80"/>
<g>
	<path class="st1" d="M16.3,57.1l1.8-2.3c-0.6-0.6-1.4-1-2.2-1.3C15,53.2,14.1,53,13.3,53c-1.2,0-2.3,0.3-3.3,0.8
		c-1,0.5-1.7,1.2-2.3,2.1c-0.6,0.9-0.8,1.9-0.8,3c0,1.1,0.3,2.2,0.8,3.1C8.2,63,9,63.7,9.9,64.2c1,0.5,2,0.8,3.2,0.8
		c0.9,0,1.8-0.2,2.6-0.5c0.9-0.3,1.7-0.8,2.3-1.3l-1.8-2c-0.4,0.5-0.9,0.8-1.4,1.1c-0.5,0.3-1,0.4-1.5,0.4c-0.6,0-1.1-0.2-1.6-0.5
		c-0.5-0.3-0.9-0.8-1.1-1.3c-0.3-0.6-0.4-1.2-0.4-1.9s0.1-1.3,0.4-1.9c0.3-0.6,0.6-1,1.1-1.3c0.5-0.3,1.1-0.5,1.6-0.5
		c0.5,0,1,0.2,1.6,0.5C15.4,56.1,15.9,56.6,16.3,57.1z"/>
	<path class="st1" d="M25.4,55.3c0.6,0,1.1,0.2,1.6,0.5c0.5,0.3,0.9,0.8,1.2,1.3c0.3,0.6,0.4,1.2,0.4,1.8c0,0.7-0.1,1.3-0.4,1.9
		c-0.3,0.6-0.7,1-1.2,1.3c-0.5,0.3-1,0.5-1.6,0.5c-0.6,0-1.1-0.2-1.6-0.5c-0.5-0.3-0.9-0.8-1.2-1.3c-0.3-0.6-0.4-1.2-0.4-1.9
		c0-0.7,0.1-1.3,0.4-1.8c0.3-0.6,0.7-1,1.2-1.3C24.2,55.5,24.8,55.3,25.4,55.3z M25.3,53c-1.2,0-2.3,0.3-3.3,0.8
		c-1,0.5-1.8,1.2-2.3,2.1c-0.6,0.9-0.8,1.9-0.8,3c0,1.1,0.3,2.2,0.8,3.1c0.6,0.9,1.3,1.6,2.3,2.2c1,0.5,2.1,0.8,3.3,0.8
		s2.3-0.3,3.3-0.8c1-0.5,1.8-1.2,2.3-2.2c0.6-0.9,0.8-1.9,0.8-3.1c0-1.1-0.3-2.1-0.8-3c-0.6-0.9-1.4-1.6-2.3-2.1
		C27.6,53.3,26.5,53,25.3,53z"/>
	<path class="st1" d="M38.7,59.7h-2v-4.3h2c0.6,0,1.1,0.2,1.5,0.6c0.3,0.4,0.5,0.9,0.5,1.6c0,0.7-0.2,1.3-0.5,1.6
		C39.9,59.5,39.4,59.7,38.7,59.7z M38.9,53h-5.2v12h3.1v-3h2.1c1.5,0,2.7-0.4,3.5-1.2c0.9-0.8,1.3-1.9,1.3-3.4
		c0-1.4-0.4-2.4-1.3-3.2C41.6,53.4,40.4,53,38.9,53z"/>
	<path class="st1" d="M50.7,59.7h-2v-4.3h2c0.6,0,1.1,0.2,1.5,0.6c0.3,0.4,0.5,0.9,0.5,1.6c0,0.7-0.2,1.3-0.5,1.6
		C51.9,59.5,51.4,59.7,50.7,59.7z M50.9,53h-5.2v12h3.1v-3h2.1c1.5,0,2.7-0.4,3.5-1.2c0.9-0.8,1.3-1.9,1.3-3.4
		c0-1.4-0.4-2.4-1.3-3.2C53.6,53.4,52.4,53,50.9,53z"/>
	<polygon class="st1" points="57.7,65 67.2,65 67.2,62.7 60.8,62.7 60.8,60.3 66.4,60.3 66.4,58 60.8,58 60.8,55.3 67.1,55.3 
		67.1,53 57.7,53 	"/>
	<path class="st1" d="M71.8,55.3H74c0.6,0,1.1,0.2,1.5,0.6c0.3,0.4,0.5,0.9,0.5,1.6c0,0.7-0.2,1.3-0.5,1.6c-0.3,0.4-0.8,0.6-1.5,0.6
		h-2.3V55.3z M79.3,65l-2.5-3.6c0.7-0.4,1.2-0.9,1.6-1.6c0.4-0.7,0.6-1.5,0.6-2.5c0-1.4-0.4-2.5-1.3-3.2C76.8,53.4,75.6,53,74,53
		h-5.4v12h3.1v-3H74h0.1l1.7,3H79.3z"/>
</g>
</svg>
