<?xml version="1.0" standalone="no"?><!-- Generator: Adobe Fireworks CS6, Export SVG Extension by Aaron Beall (http://fireworks.abeall.com) . Version: 0.6.1  --><!DOCTYPE svg PUBLIC "-//W3C//DTD SVG 1.1//EN" "http://www.w3.org/Graphics/SVG/1.1/DTD/svg11.dtd"><svg id="Untitled-Page%201" viewBox="0 0 51 46" style="background-color:#ffffff00" version="1.1"	xmlns="http://www.w3.org/2000/svg" xmlns:xlink="http://www.w3.org/1999/xlink" xml:space="preserve"	x="0px" y="0px" width="51px" height="46px">	<g id="Layer%201">		<g>			<path d="M 35.0847 23.0815 C 35.0847 24.0874 34.2455 24.9033 33.2095 24.9033 C 32.1729 24.9033 31.3333 24.0874 31.3333 23.0815 C 31.3333 22.0768 32.1729 21.2627 33.2095 21.2627 C 34.2455 21.2627 35.0847 22.0768 35.0847 23.0815 ZM 41.6837 5.8573 C 41.1312 5.4899 40.4414 5.3058 39.6133 5.3058 C 38.4336 5.3058 37.4932 5.7318 36.7902 6.5841 L 36.7902 0.1628 L 33.4935 0.1628 L 33.4935 18.4198 C 33.4672 18.9462 33.2527 19.4177 32.6499 19.5793 C 30.8969 19.8396 29.5554 21.308 29.5554 23.0815 C 29.5554 25.0402 31.1904 26.6278 33.2101 26.6278 C 34.1132 26.6278 34.939 26.3088 35.5767 25.7816 L 35.6094 25.7538 C 35.7004 25.6775 35.7871 25.597 35.8696 25.5116 C 35.9957 25.4087 36.1421 25.327 36.3152 25.327 C 36.5366 25.327 36.6976 25.3645 36.8802 25.5206 C 37.5946 26.3009 38.5054 26.692 39.6133 26.692 L 39.744 26.6852 C 40.5284 26.6719 41.1885 26.4904 41.7188 26.1381 C 42.2721 25.77 42.6552 25.3597 42.8687 24.9045 C 43.0726 24.4736 43.1772 23.7435 43.1868 22.7231 L 43.1897 22.5762 L 43.1897 9.421 C 43.1897 8.3188 43.0765 7.5405 42.8502 7.0883 C 42.6239 6.6351 42.2352 6.2246 41.6837 5.8573 ZM 39.8931 21.026 L 39.8931 22.245 C 39.8931 22.6389 39.7582 22.9592 39.4906 23.2056 C 39.1494 23.5258 38.7122 23.6493 38.1771 23.5748 C 37.7076 23.504 37.1628 23.1753 36.7902 22.5754 L 36.7902 9.3927 C 37.2283 8.825 37.6901 8.506 38.1771 8.4314 C 38.7122 8.3571 39.1494 8.4805 39.4906 8.8013 C 39.7582 9.0476 39.8931 9.3678 39.8931 9.7612 L 39.8931 21.026 ZM 48.1487 6.5533 L 48.1487 5.4304 L 44.8892 5.4304 L 44.8892 26.5098 L 48.1487 26.5098 L 48.1487 9.3563 C 48.6239 8.7916 49.111 8.4713 49.6116 8.3976 C 50.1613 8.3237 50.6246 8.4467 51 8.7667 L 51 5.2325 C 49.8246 5.2325 48.8744 5.6732 48.1487 6.5533 Z" fill="#ffffff"/>			<path d="M 10.254 21.9659 C 10.254 23.2782 9.7847 24.3967 8.8478 25.3234 C 7.9111 26.2501 6.7704 26.7119 5.4286 26.7119 C 4.0856 26.7119 2.9264 26.2537 1.9521 25.335 C 0.9753 24.4178 0.489 23.3102 0.489 22.0126 L 0.489 10.0778 C 0.489 8.7795 0.9659 7.6725 1.9192 6.7555 C 2.8724 5.8379 4.0236 5.3772 5.3712 5.3772 C 6.7192 5.3772 7.87 5.8379 8.8235 6.7555 C 9.7762 7.6725 10.254 8.7795 10.254 10.0778 L 10.254 17.5311 L 6.9741 17.5311 L 6.9741 9.9652 C 6.9741 9.5469 6.8163 9.1832 6.5026 8.8763 C 6.1888 8.5687 5.8182 8.4158 5.39 8.4158 C 4.9377 8.4158 4.554 8.5707 4.2394 8.8781 C 3.925 9.1832 3.7684 9.5482 3.7684 9.9664 L 3.7684 22.1239 C 3.7684 22.5439 3.925 22.9071 4.2394 23.2147 C 4.554 23.5215 4.9377 23.6758 5.39 23.6758 C 5.8182 23.6758 6.1888 23.5173 6.5026 23.2001 C 6.8163 22.8817 6.9741 22.5077 6.9741 22.0736 L 6.9741 20.8552 L 10.254 20.8552 L 10.254 21.9659 L 10.254 21.9659 Z" fill="#ffffff"/>			<path d="M 18.7455 6.6174 L 18.7534 6.6127 L 18.7534 6.6144 L 18.7455 6.6174 ZM 18.7534 22.6208 C 18.275 23.1874 17.7847 23.507 17.2827 23.5802 C 16.7291 23.6566 16.277 23.5319 15.925 23.2123 C 15.6733 22.9653 15.5481 22.6469 15.5481 22.2528 L 15.5481 11.0027 L 15.5481 9.786 C 15.5481 9.3932 15.704 9.0548 16.0188 8.7716 C 16.3333 8.4895 16.7664 8.3848 17.3206 8.458 C 17.822 8.532 18.3 8.8528 18.7534 9.4181 L 18.7534 22.6208 L 18.7534 22.6208 ZM 18.7534 5.4498 L 18.7534 6.6107 C 18.0243 5.7526 17.0679 5.3246 15.8875 5.3246 C 15.0586 5.3246 14.3661 5.5067 13.8131 5.8746 C 13.2601 6.2428 12.8771 6.6532 12.6636 7.1077 C 12.4502 7.558 12.3445 8.3322 12.3431 9.4247 L 12.3427 9.4253 L 12.3427 22.593 C 12.3427 23.6958 12.4485 24.476 12.6628 24.9287 C 12.8768 25.3839 13.2596 25.7943 13.8125 26.1624 C 14.3655 26.5297 15.058 26.7119 15.8867 26.7119 C 17.0675 26.7119 18.0242 26.2833 18.7534 25.425 L 18.7534 27.5824 C 18.7534 28.035 18.5952 28.4139 18.2817 28.7177 C 17.9672 29.0192 17.5841 29.1724 17.1316 29.1724 C 16.6792 29.1724 16.3022 29.0155 16 28.7063 C 15.6979 28.3927 15.5477 28.0254 15.5477 27.6005 L 12.3427 27.6005 C 12.3427 28.8569 12.8046 29.8781 13.7296 30.668 C 14.655 31.4542 15.8007 31.8488 17.1683 31.8488 C 18.5361 31.8488 19.6901 31.4584 20.6277 30.6794 C 21.5636 29.8993 22.033 28.8666 22.033 27.5824 L 22.033 5.4498 L 18.7534 5.4498 L 18.7534 5.4498 Z" fill="#ffffff"/>			<path d="M 27.5221 26.5691 L 24.2428 26.5691 L 24.2428 5.4498 L 27.5221 5.4498 L 27.5221 26.5691 ZM 27.5221 3.2806 L 24.2428 3.2806 L 24.2428 0.17 L 27.5221 0.17 L 27.5221 3.2806 Z" fill="#ffffff"/>			<path d="M 2.743 36.9023 L 3.6084 36.9023 C 3.6042 36.9574 3.598 37.042 3.59 37.1564 C 3.5657 37.6056 3.4661 37.9446 3.2913 38.1732 C 3.0842 38.4481 2.7595 38.5868 2.3165 38.5868 C 1.679 38.5868 1.2546 38.3937 1.0432 38.0074 C 0.8972 37.7357 0.8241 37.2467 0.8241 36.5415 L 0.8241 35.9091 C 0.8241 35.2396 0.9033 34.7687 1.0616 34.4968 C 1.2771 34.1217 1.6953 33.9364 2.3165 33.9407 C 3.1614 33.9448 3.5839 34.4196 3.5839 35.3655 L 3.5839 35.4242 L 2.743 35.4242 C 2.7024 35.0938 2.6804 34.9218 2.6759 34.9103 C 2.6154 34.7094 2.4954 34.6089 2.3165 34.6089 C 1.9065 34.6089 1.7013 34.9261 1.7013 35.5603 L 1.7013 36.9554 C 1.7013 37.597 1.9054 37.9191 2.3127 37.9191 C 2.5106 37.9191 2.6388 37.7854 2.6943 37.5166 C 2.7024 37.481 2.7186 37.2764 2.743 36.9023 ZM 4.9911 36.2819 L 4.9911 37.3926 C 4.9911 37.6178 5.0132 37.7654 5.0581 37.8363 C 5.1152 37.9305 5.2327 37.9784 5.4115 37.9784 C 5.582 37.9784 5.6935 37.9305 5.7467 37.8363 C 5.7872 37.7654 5.8074 37.6178 5.8074 37.3926 L 5.8074 36.2819 C 5.8074 36.073 5.7911 35.929 5.7585 35.8497 C 5.7019 35.7159 5.5862 35.6494 5.4115 35.6494 C 5.2245 35.6494 5.1029 35.7159 5.0458 35.8497 C 5.0094 35.929 4.9911 36.073 4.9911 36.2819 L 4.9911 36.2819 ZM 5.3568 38.5691 C 4.8896 38.5691 4.5747 38.4432 4.4122 38.1909 C 4.27 37.97 4.1991 37.568 4.1991 36.9852 L 4.1991 36.9313 C 4.1991 36.2461 4.2518 35.7909 4.3575 35.5664 C 4.5161 35.228 4.8672 35.058 5.4115 35.058 C 5.9437 35.058 6.2887 35.228 6.447 35.5664 C 6.5486 35.7867 6.5994 36.2419 6.5994 36.9313 L 6.5994 36.9906 C 6.5994 37.5704 6.5304 37.97 6.3922 38.1909 C 6.2297 38.4432 5.9211 38.5691 5.4662 38.5691 L 5.3568 38.5691 ZM 8.1165 35.147 L 8.1165 35.4896 L 8.1165 35.4896 C 8.2585 35.202 8.5183 35.058 8.8962 35.058 L 8.8962 35.058 C 9.0625 35.058 9.2137 35.0919 9.348 35.1584 C 9.4993 35.2372 9.5865 35.3479 9.6112 35.4896 L 9.6229 35.4896 C 9.7736 35.202 10.0383 35.058 10.4171 35.058 C 10.6943 35.058 10.9076 35.1306 11.0576 35.2771 C 11.1929 35.4072 11.2599 35.5707 11.2599 35.7673 L 11.2599 38.4808 L 10.4678 38.4808 L 10.4678 36.228 C 10.4678 36.0427 10.4496 35.9091 10.4131 35.826 C 10.3601 35.7086 10.2627 35.6494 10.1206 35.6494 L 10.0902 35.6494 C 9.9155 35.6494 9.7997 35.7201 9.7429 35.8618 C 9.7062 35.9484 9.688 36.09 9.688 36.2872 L 9.688 38.4808 L 8.8962 38.4808 L 8.8962 36.1869 C 8.8962 36.0095 8.8779 35.8835 8.8413 35.8086 C 8.7845 35.702 8.6768 35.6494 8.5183 35.6494 L 8.5062 35.6494 C 8.3357 35.6494 8.224 35.7104 8.1713 35.8322 C 8.1348 35.9149 8.1165 36.067 8.1165 36.2872 L 8.1165 38.4808 L 7.3246 38.4808 L 7.3246 35.147 L 8.1165 35.147 L 8.1165 35.147 ZM 12.9048 38.4808 L 12.1129 38.4808 L 12.1129 35.147 L 12.9048 35.147 L 12.9048 38.4808 ZM 12.9048 34.7451 L 12.1129 34.7451 L 12.1129 34.0472 L 12.9048 34.0472 L 12.9048 34.7451 ZM 14.892 37.8949 L 14.892 38.4923 C 14.6807 38.5123 14.5465 38.5214 14.4897 38.5214 C 14.0063 38.5214 13.7646 38.3368 13.7646 37.9663 L 13.7646 35.7086 L 13.4418 35.7086 L 13.4418 35.147 L 13.7646 35.147 L 13.7646 34.2306 L 14.5568 34.2306 L 14.5568 35.147 L 14.892 35.147 L 14.892 35.7086 L 14.5568 35.7086 L 14.5568 37.7769 C 14.5651 37.8562 14.6379 37.8949 14.7762 37.8949 C 14.833 37.8949 14.8713 37.8949 14.892 37.8949 L 14.892 37.8949 ZM 15.3729 36.199 C 15.3729 35.8322 15.4725 35.5507 15.6716 35.3534 C 15.8705 35.1567 16.1571 35.058 16.5305 35.058 C 17.0385 35.058 17.3794 35.1881 17.5542 35.4485 C 17.6841 35.6451 17.749 36.0034 17.749 36.524 L 17.749 36.9731 L 16.165 36.9731 L 16.165 37.4579 C 16.165 37.8042 16.3053 37.9784 16.5854 37.9784 C 16.833 37.9784 16.9572 37.7932 16.9572 37.4222 L 16.9572 37.3514 L 17.749 37.3514 L 17.749 37.4457 C 17.749 38.1952 17.3813 38.5691 16.6465 38.5691 C 16.1974 38.5691 15.8739 38.4633 15.6737 38.2533 C 15.4736 38.0426 15.3729 37.7019 15.3729 37.2328 L 15.3729 36.199 L 15.3729 36.199 ZM 16.165 36.3817 L 16.9572 36.3817 L 16.9572 36.0924 C 16.9572 35.923 16.9275 35.8066 16.8688 35.7432 C 16.8098 35.6808 16.7012 35.6494 16.5427 35.6494 C 16.3804 35.6494 16.2727 35.702 16.2196 35.8086 C 16.1832 35.8757 16.165 35.9955 16.165 36.1693 L 16.165 36.3817 ZM 16.1925 33.9292 L 16.9572 33.9292 L 17.6516 34.7916 L 16.9572 34.7916 L 16.5731 34.3081 L 16.1832 34.7916 L 15.5009 34.7916 L 16.1925 33.9292 L 16.1925 33.9292 ZM 19.9545 36.5415 L 19.9545 35.9091 C 19.9545 35.2396 20.0334 34.7705 20.1919 34.5023 C 20.403 34.1283 20.8213 33.9407 21.447 33.9407 C 21.8408 33.9407 22.1475 34.0035 22.3667 34.1302 C 22.6187 34.2795 22.7891 34.5356 22.8785 34.8982 C 22.8988 34.9733 22.9131 35.1523 22.9213 35.4363 L 22.0682 35.4363 C 22.0599 35.1567 22.0276 34.9629 21.9709 34.8571 C 21.8813 34.6954 21.7069 34.6124 21.447 34.6089 C 21.0365 34.6011 20.8317 34.9182 20.8317 35.5603 L 20.8317 36.9554 C 20.8317 37.597 21.0365 37.9191 21.447 37.9191 C 21.865 37.9191 22.0743 37.562 22.0743 36.849 L 22.0682 36.7487 L 21.4836 36.7487 L 21.4836 36.0985 L 22.903 36.0985 L 22.903 38.4808 L 22.2632 38.4808 L 22.2632 37.9718 L 22.2632 37.9718 C 22.1119 38.3779 21.8429 38.5824 21.455 38.5868 C 20.8134 38.5946 20.3866 38.4034 20.1747 38.0134 C 20.0273 37.7411 19.9545 37.2509 19.9545 36.5415 L 19.9545 36.5415 ZM 23.6644 36.199 C 23.6644 35.8322 23.7638 35.5507 23.963 35.3534 C 24.162 35.1567 24.4484 35.058 24.8221 35.058 C 25.3296 35.058 25.6708 35.1881 25.8455 35.4485 C 25.9755 35.6451 26.0404 36.0034 26.0404 36.524 L 26.0404 36.9731 L 24.4563 36.9731 L 24.4563 37.4579 C 24.4563 37.8042 24.5966 37.9784 24.8768 37.9784 C 25.1244 37.9784 25.2484 37.7932 25.2484 37.4222 L 25.2484 37.3514 L 26.0404 37.3514 L 26.0404 37.4457 C 26.0404 38.1952 25.6729 38.5691 24.9377 38.5691 C 24.4889 38.5691 24.165 38.4633 23.9651 38.2533 C 23.765 38.0426 23.6644 37.7019 23.6644 37.2328 L 23.6644 36.199 L 23.6644 36.199 ZM 24.4563 36.3817 L 25.2484 36.3817 L 25.2484 36.0924 C 25.2484 35.923 25.219 35.8066 25.1599 35.7432 C 25.1012 35.6808 24.9924 35.6494 24.8339 35.6494 C 24.6718 35.6494 24.5641 35.702 24.5112 35.8086 C 24.4745 35.8757 24.4563 35.9955 24.4563 36.1693 L 24.4563 36.3817 L 24.4563 36.3817 ZM 26.5642 37.381 L 27.344 37.381 C 27.344 37.4677 27.344 37.5269 27.344 37.5583 C 27.344 37.7394 27.3826 37.8597 27.4608 37.9191 C 27.5052 37.9579 27.5839 37.9784 27.6945 37.9784 L 27.7249 37.9784 C 27.8235 37.9784 27.9055 37.951 27.9705 37.8979 C 28.0366 37.8447 28.0692 37.7751 28.0692 37.6879 C 28.0692 37.6722 28.0649 37.6449 28.0568 37.6056 C 28.0529 37.5269 28.006 37.4501 27.9158 37.3756 C 27.8307 37.3199 27.7472 37.2642 27.665 37.2097 L 27.2314 36.9198 C 26.7948 36.6281 26.5765 36.2776 26.5765 35.8678 C 26.5765 35.6118 26.6792 35.412 26.8842 35.271 C 27.0891 35.1288 27.3805 35.058 27.7585 35.058 C 28.4935 35.058 28.8611 35.4084 28.8611 36.11 L 28.8611 36.1632 L 28.0692 36.1632 L 28.0692 36.087 C 28.0692 35.7946 27.947 35.6494 27.7034 35.6494 C 27.4802 35.6494 27.3684 35.7401 27.3684 35.9205 C 27.3684 36.0476 27.4678 36.1753 27.6663 36.3048 L 28.3088 36.7303 C 28.592 36.9198 28.7677 37.1383 28.8367 37.3865 C 28.8529 37.4457 28.8611 37.5209 28.8611 37.611 C 28.8611 38.2496 28.4661 38.5691 27.6761 38.5691 C 27.3967 38.5691 27.1611 38.5056 26.9714 38.3804 C 26.6962 38.2061 26.5583 37.9264 26.5583 37.5402 C 26.5583 37.4701 26.5602 37.4167 26.5642 37.381 L 26.5642 37.381 ZM 30.6277 37.8949 L 30.6277 38.4923 C 30.4165 38.5123 30.2826 38.5214 30.2257 38.5214 C 29.7423 38.5214 29.5005 38.3368 29.5005 37.9663 L 29.5005 35.7086 L 29.1779 35.7086 L 29.1779 35.147 L 29.5005 35.147 L 29.5005 34.2306 L 30.2927 34.2306 L 30.2927 35.147 L 30.6277 35.147 L 30.6277 35.7086 L 30.2927 35.7086 L 30.2927 37.7769 C 30.3007 37.8562 30.374 37.8949 30.5121 37.8949 C 30.5687 37.8949 30.6073 37.8949 30.6277 37.8949 L 30.6277 37.8949 ZM 31.8997 36.2819 L 31.8997 37.3926 C 31.8997 37.6178 31.9224 37.7654 31.9668 37.8363 C 32.0239 37.9305 32.1415 37.9784 32.3202 37.9784 C 32.491 37.9784 32.6027 37.9305 32.6554 37.8363 C 32.6962 37.7654 32.7164 37.6178 32.7164 37.3926 L 32.7164 36.2819 C 32.7164 36.073 32.7001 35.929 32.6677 35.8497 C 32.6106 35.7159 32.4949 35.6494 32.3202 35.6494 C 32.1335 35.6494 32.0115 35.7159 31.9548 35.8497 C 31.9185 35.929 31.8997 36.073 31.8997 36.2819 L 31.8997 36.2819 ZM 32.2655 38.5691 C 31.7985 38.5691 31.4838 38.4432 31.3212 38.1909 C 31.1788 37.97 31.1082 37.568 31.1082 36.9852 L 31.1082 36.9313 C 31.1082 36.2461 31.1609 35.7909 31.2662 35.5664 C 31.4247 35.228 31.7761 35.058 32.3202 35.058 C 32.8523 35.058 33.1974 35.228 33.356 35.5664 C 33.4576 35.7867 33.5085 36.2419 33.5085 36.9313 L 33.5085 36.9906 C 33.5085 37.5704 33.4392 37.97 33.3011 38.1909 C 33.1388 38.4432 32.8302 38.5691 32.3754 38.5691 L 32.2655 38.5691 L 32.2655 38.5691 ZM 34.9583 35.147 L 34.9583 35.7378 L 34.9705 35.7378 C 35.0596 35.521 35.1632 35.363 35.2811 35.2644 C 35.4153 35.1584 35.5795 35.0992 35.7747 35.0876 L 35.7747 35.9918 C 35.738 35.9918 35.6833 35.9918 35.61 35.9918 C 35.196 35.9918 34.9886 36.179 34.9886 36.5536 L 34.9886 38.4796 L 34.1968 38.4796 L 34.1968 35.147 L 34.9583 35.147 L 34.9583 35.147 ZM 39.2296 37.3865 L 39.2296 36.2758 C 39.2296 35.8575 39.1058 35.6494 38.858 35.6494 C 38.6914 35.6494 38.5861 35.7141 38.5414 35.8442 C 38.5127 35.9193 38.4987 36.0687 38.4987 36.2933 L 38.4987 37.4045 C 38.4987 37.7865 38.6146 37.9784 38.8459 37.9784 C 39.1017 37.9784 39.2296 37.7811 39.2296 37.3865 ZM 39.2296 38.4796 L 39.2296 38.1256 L 39.2174 38.1256 C 39.0875 38.4172 38.8605 38.5651 38.5349 38.5691 C 37.9825 38.5807 37.7064 38.2061 37.7064 37.4457 L 37.7064 36.2407 C 37.7064 35.8031 37.7799 35.4913 37.9259 35.3062 C 38.0599 35.141 38.2629 35.058 38.5349 35.058 L 38.5597 35.058 C 38.8765 35.058 39.1039 35.1996 39.2421 35.4835 L 39.2542 35.4835 C 39.2378 35.3927 39.2296 35.2948 39.2296 35.1881 L 39.2296 34.0472 L 40.0216 34.0472 L 40.0216 38.4796 L 39.2296 38.4796 L 39.2296 38.4796 ZM 43.1102 38.4796 L 42.3608 38.4796 C 42.3245 38.413 42.3062 38.3307 42.3062 38.2321 C 42.3062 38.1891 42.3081 38.157 42.3124 38.137 L 42.3 38.137 C 42.1052 38.425 41.8735 38.5691 41.6057 38.5691 C 41.2888 38.5691 41.056 38.4882 40.9081 38.327 C 40.7599 38.1649 40.6857 37.9132 40.6857 37.5704 C 40.6857 37.2308 40.8033 36.967 41.0392 36.7782 C 41.1649 36.6794 41.439 36.5458 41.8613 36.3763 C 42.1335 36.2655 42.2697 36.1238 42.2697 35.9507 C 42.2697 35.9114 42.2633 35.8678 42.2515 35.8201 C 42.2238 35.7062 42.1022 35.6494 41.8859 35.6494 C 41.7253 35.6494 41.6177 35.6857 41.5618 35.7583 C 41.5059 35.8309 41.4778 35.9442 41.4778 36.0985 L 41.4778 36.1343 L 40.7222 36.1343 L 40.7222 36.11 C 40.7222 35.7673 40.7993 35.5149 40.9528 35.3534 C 41.1385 35.1567 41.4596 35.058 41.9164 35.058 C 42.368 35.058 42.6838 35.1567 42.8613 35.3534 C 42.9824 35.4913 43.0432 35.6965 43.0432 35.9684 L 43.0432 38.0134 C 43.0432 38.1631 43.0658 38.3186 43.1102 38.4808 L 43.1102 38.4796 ZM 42.2515 37.0856 L 42.2515 36.7249 C 42.1052 36.8114 41.8918 36.9531 41.6117 37.1504 C 41.5223 37.2219 41.4778 37.3551 41.4778 37.5524 C 41.4778 37.8363 41.6013 37.9784 41.8495 37.9784 C 42.0522 37.9784 42.1783 37.8695 42.2271 37.6528 C 42.2434 37.5784 42.2515 37.3889 42.2515 37.0856 ZM 1.7622 45.3398 L 0.9092 45.3398 L 0.9092 40.9073 L 1.7622 40.9073 L 1.7622 45.3398 ZM 3.3461 42.0072 L 3.3461 42.3497 L 3.3461 42.3497 C 3.4812 42.0623 3.7209 41.9181 4.0652 41.9181 C 4.3026 41.9181 4.4906 41.9811 4.6298 42.1071 C 4.7849 42.245 4.8633 42.4478 4.8633 42.7159 L 4.8633 45.3398 L 4.071 45.3398 L 4.071 43.1178 C 4.071 42.929 4.0529 42.7964 4.0164 42.7219 C 3.9677 42.6196 3.8741 42.5681 3.7361 42.5681 L 3.7178 42.5681 C 3.4701 42.5681 3.3461 42.7552 3.3461 43.1293 L 3.3461 45.3398 L 2.5544 45.3398 L 2.5544 42.0072 L 3.3461 42.0072 ZM 6.7649 44.7557 L 6.7649 45.3518 C 6.5538 45.3718 6.4194 45.3815 6.363 45.3815 C 5.8793 45.3815 5.6377 45.1963 5.6377 44.8259 L 5.6377 42.5681 L 5.3149 42.5681 L 5.3149 42.0072 L 5.6377 42.0072 L 5.6377 41.0907 L 6.4298 41.0907 L 6.4298 42.0072 L 6.7649 42.0072 L 6.7649 42.5681 L 6.4298 42.5681 L 6.4298 44.637 C 6.4379 44.7157 6.5111 44.7557 6.6493 44.7557 C 6.7061 44.7557 6.7445 44.7557 6.7649 44.7557 L 6.7649 44.7557 ZM 7.246 43.0591 C 7.246 42.6923 7.3455 42.4109 7.5447 42.2135 C 7.7435 42.0168 8.0298 41.9181 8.4036 41.9181 C 8.9114 41.9181 9.2524 42.0477 9.4272 42.308 C 9.5571 42.5054 9.6222 42.8635 9.6222 43.3842 L 9.6222 43.8333 L 8.038 43.8333 L 8.038 44.3181 C 8.038 44.6649 8.178 44.838 8.4585 44.838 C 8.7062 44.838 8.8302 44.6527 8.8302 44.2823 L 8.8302 44.2115 L 9.6218 44.2115 L 9.6218 44.306 C 9.6218 45.0547 9.2545 45.4293 8.5195 45.4293 C 8.0706 45.4293 7.7466 45.3234 7.5469 45.1129 C 7.3468 44.9027 7.246 44.562 7.246 44.0929 L 7.246 43.0591 L 7.246 43.0591 ZM 8.038 43.2419 L 8.8302 43.2419 L 8.8302 42.9525 C 8.8302 42.7825 8.8003 42.6669 8.7417 42.6039 C 8.683 42.5404 8.5741 42.5089 8.4156 42.5089 C 8.2532 42.5089 8.1459 42.5621 8.0928 42.6687 C 8.0564 42.7358 8.038 42.8557 8.038 43.0288 L 8.038 43.2419 ZM 11.0952 42.0072 L 11.0952 42.5973 L 11.1075 42.5973 C 11.1967 42.3806 11.3007 42.2233 11.4182 42.1246 C 11.5522 42.0186 11.7166 41.9598 11.9116 41.9479 L 11.9116 42.8522 C 11.875 42.8522 11.8206 42.8522 11.7471 42.8522 C 11.3331 42.8522 11.126 43.0386 11.126 43.4132 L 11.126 45.3398 L 10.3337 45.3398 L 10.3337 42.0072 L 11.0952 42.0072 ZM 13.1604 42.0072 L 13.1604 42.3497 L 13.1604 42.3497 C 13.2955 42.0623 13.5354 41.9181 13.8794 41.9181 C 14.1171 41.9181 14.3047 41.9811 14.4437 42.1071 C 14.5992 42.245 14.6774 42.4478 14.6774 42.7159 L 14.6774 45.3398 L 13.8855 45.3398 L 13.8855 43.1178 C 13.8855 42.929 13.8674 42.7964 13.8306 42.7219 C 13.7817 42.6196 13.6886 42.5681 13.5504 42.5681 L 13.532 42.5681 C 13.2845 42.5681 13.1604 42.7552 13.1604 43.1293 L 13.1604 45.3398 L 12.3685 45.3398 L 12.3685 42.0072 L 13.1604 42.0072 ZM 15.3666 43.0591 C 15.3666 42.6923 15.4661 42.4109 15.6655 42.2135 C 15.8643 42.0168 16.1508 41.9181 16.5244 41.9181 C 17.0322 41.9181 17.373 42.0477 17.5479 42.308 C 17.6777 42.5054 17.7428 42.8635 17.7428 43.3842 L 17.7428 43.8333 L 16.1587 43.8333 L 16.1587 44.3181 C 16.1587 44.6649 16.299 44.838 16.5792 44.838 C 16.8268 44.838 16.9508 44.6527 16.9508 44.2823 L 16.9508 44.2115 L 17.7428 44.2115 L 17.7428 44.306 C 17.7428 45.0547 17.3751 45.4293 16.6401 45.4293 C 16.1913 45.4293 15.8676 45.3234 15.6674 45.1129 C 15.4673 44.9027 15.3666 44.562 15.3666 44.0929 L 15.3666 43.0591 L 15.3666 43.0591 ZM 16.1587 43.2419 L 16.9508 43.2419 L 16.9508 42.9525 C 16.9508 42.7825 16.9214 42.6669 16.8625 42.6039 C 16.8035 42.5404 16.6949 42.5089 16.5364 42.5089 C 16.3743 42.5089 16.2665 42.5621 16.2137 42.6687 C 16.177 42.7358 16.1587 42.8557 16.1587 43.0288 L 16.1587 43.2419 ZM 19.6252 44.7557 L 19.6252 45.3518 C 19.4142 45.3718 19.2802 45.3815 19.2233 45.3815 C 18.7396 45.3815 18.4982 45.1963 18.4982 44.8259 L 18.4982 42.5681 L 18.1752 42.5681 L 18.1752 42.0072 L 18.4982 42.0072 L 18.4982 41.0907 L 19.29 41.0907 L 19.29 42.0072 L 19.6252 42.0072 L 19.6252 42.5681 L 19.29 42.5681 L 19.29 44.637 C 19.2983 44.7157 19.3712 44.7557 19.5095 44.7557 C 19.5663 44.7557 19.6047 44.7557 19.6252 44.7557 L 19.6252 44.7557 ZM 22.469 42.0072 L 22.469 42.3497 L 22.469 42.3497 C 22.6039 42.0623 22.8438 41.9181 23.188 41.9181 C 23.4253 41.9181 23.6136 41.9811 23.7527 42.1071 C 23.908 42.245 23.9861 42.4478 23.9861 42.7159 L 23.9861 45.3398 L 23.1941 45.3398 L 23.1941 43.1178 C 23.1941 42.929 23.1757 42.7964 23.1393 42.7219 C 23.0906 42.6196 22.9973 42.5681 22.8589 42.5681 L 22.8409 42.5681 C 22.593 42.5681 22.469 42.7552 22.469 43.1293 L 22.469 45.3398 L 21.6771 45.3398 L 21.6771 42.0072 L 22.469 42.0072 ZM 25.4663 43.1415 L 25.4663 44.2527 C 25.4663 44.4779 25.4888 44.6249 25.5334 44.6963 C 25.5906 44.7908 25.7081 44.838 25.8868 44.838 C 26.0573 44.838 26.1692 44.7908 26.2219 44.6963 C 26.2625 44.6249 26.2828 44.4779 26.2828 44.2527 L 26.2828 43.1415 C 26.2828 42.9332 26.2668 42.7892 26.2341 42.7106 C 26.1772 42.576 26.0615 42.5089 25.8868 42.5089 C 25.7003 42.5089 25.5782 42.576 25.5215 42.7106 C 25.4847 42.7892 25.4663 42.9332 25.4663 43.1415 L 25.4663 43.1415 ZM 25.8322 45.4293 C 25.365 45.4293 25.0499 45.3033 24.8875 45.051 C 24.7457 44.8295 24.6743 44.4281 24.6743 43.8453 L 24.6743 43.7915 C 24.6743 43.1063 24.7275 42.6511 24.8328 42.4266 C 24.9913 42.0876 25.3428 41.9181 25.8868 41.9181 C 26.4189 41.9181 26.764 42.0876 26.9225 42.4266 C 27.024 42.6469 27.0747 43.1021 27.0747 43.7915 L 27.0747 43.8507 C 27.0747 44.4301 27.0057 44.8295 26.8678 45.051 C 26.7051 45.3033 26.3966 45.4293 25.9417 45.4293 L 25.8322 45.4293 ZM 30.1696 44.6903 L 30.5413 44.6903 C 30.6835 44.6903 30.7908 44.6747 30.8638 44.6425 C 31.0388 44.5681 31.1261 44.3634 31.1261 44.0281 C 31.1261 43.7758 31.0872 43.6027 31.0104 43.5076 C 30.9208 43.4017 30.7504 43.3484 30.4985 43.3484 L 30.1696 43.3484 L 30.1696 44.6903 L 30.1696 44.6903 ZM 30.1696 42.6984 L 30.407 42.6984 C 30.6835 42.6984 30.8597 42.6469 30.9371 42.5446 C 30.9982 42.4659 31.0286 42.3062 31.0286 42.0652 C 31.0286 41.8849 31 41.7584 30.9432 41.6876 C 30.874 41.6005 30.7483 41.5569 30.5654 41.5569 L 30.1696 41.5569 L 30.1696 42.6984 ZM 30.8214 45.3398 L 29.3165 45.3398 L 29.3165 40.9073 L 30.6934 40.9073 C 31.1647 40.9073 31.4874 41.0157 31.662 41.2323 C 31.8125 41.4176 31.8877 41.6832 31.8877 42.0302 C 31.8877 42.5187 31.7046 42.8285 31.3392 42.958 L 31.3392 42.9695 C 31.7817 43.0288 32.0032 43.3721 32.0032 43.9984 C 32.0032 44.2308 31.983 44.4125 31.9423 44.5426 C 31.8531 44.8217 31.7201 45.025 31.5433 45.1509 C 31.3667 45.2767 31.1261 45.3398 30.8214 45.3398 ZM 33.4349 42.0072 L 33.4349 42.5973 L 33.4473 42.5973 C 33.5363 42.3806 33.64 42.2233 33.7579 42.1246 C 33.8916 42.0186 34.0562 41.9598 34.2511 41.9479 L 34.2511 42.8522 C 34.2147 42.8522 34.1599 42.8522 34.0867 42.8522 C 33.6725 42.8522 33.4655 43.0386 33.4655 43.4132 L 33.4655 45.3398 L 32.6733 45.3398 L 32.6733 42.0072 L 33.4349 42.0072 L 33.4349 42.0072 ZM 37.0179 45.3398 L 36.2687 45.3398 C 36.2323 45.2731 36.2139 45.1909 36.2139 45.0917 C 36.2139 45.0492 36.2159 45.0172 36.22 44.9971 L 36.2076 44.9971 C 36.0127 45.2853 35.7814 45.4293 35.5134 45.4293 C 35.1964 45.4293 34.964 45.3483 34.8157 45.1865 C 34.6675 45.025 34.5935 44.7726 34.5935 44.4301 C 34.5935 44.0912 34.7113 43.8271 34.9467 43.6377 C 35.0725 43.5397 35.3468 43.4053 35.7689 43.2365 C 36.0411 43.1256 36.1775 42.984 36.1775 42.8109 C 36.1775 42.771 36.1713 42.7274 36.1589 42.6802 C 36.1315 42.5664 36.0099 42.5089 35.7933 42.5089 C 35.6331 42.5089 35.5255 42.5453 35.4695 42.6185 C 35.4137 42.691 35.3854 42.8043 35.3854 42.958 L 35.3854 42.9938 L 34.6299 42.9938 L 34.6299 42.9695 C 34.6299 42.6276 34.7072 42.3751 34.8604 42.2135 C 35.0463 42.0168 35.3672 41.9181 35.8242 41.9181 C 36.2758 41.9181 36.5917 42.0168 36.7692 42.2135 C 36.89 42.3516 36.951 42.5562 36.951 42.8285 L 36.951 44.8737 C 36.951 45.0232 36.9733 45.1788 37.0179 45.3398 L 37.0179 45.3398 ZM 36.1589 43.9452 L 36.1589 43.5851 C 36.0127 43.6716 35.7996 43.8132 35.5194 44.0106 C 35.4302 44.0814 35.3854 44.2152 35.3854 44.4125 C 35.3854 44.6963 35.5092 44.838 35.757 44.838 C 35.9601 44.838 36.0859 44.7296 36.1348 44.5129 C 36.1509 44.4379 36.1589 44.249 36.1589 43.9452 ZM 37.5603 44.2413 L 38.3401 44.2413 C 38.3401 44.3271 38.3401 44.3865 38.3401 44.4185 C 38.3401 44.5995 38.3787 44.72 38.4567 44.7793 C 38.5013 44.818 38.5796 44.838 38.6903 44.838 L 38.7206 44.838 C 38.8193 44.838 38.9016 44.8114 38.9664 44.7581 C 39.0323 44.7048 39.0647 44.6353 39.0647 44.548 C 39.0647 44.5323 39.0609 44.505 39.0526 44.4658 C 39.0486 44.3865 39.0018 44.3102 38.9116 44.2357 C 38.8263 44.1801 38.7432 44.1244 38.6608 44.0692 L 38.2272 43.7799 C 37.7905 43.4877 37.5723 43.1378 37.5723 42.7274 C 37.5723 42.472 37.675 42.2728 37.8802 42.1306 C 38.0851 41.989 38.3765 41.9181 38.7543 41.9181 C 39.4893 41.9181 39.8568 42.2687 39.8568 42.9695 L 39.8568 43.0233 L 39.0647 43.0233 L 39.0647 42.9465 C 39.0647 42.6547 38.943 42.5089 38.6995 42.5089 C 38.4761 42.5089 38.3643 42.5997 38.3643 42.7806 C 38.3643 42.9071 38.4636 43.0355 38.662 43.165 L 39.3046 43.5906 C 39.5878 43.7799 39.7635 43.9984 39.8325 44.2467 C 39.8488 44.306 39.8568 44.381 39.8568 44.4712 C 39.8568 45.1097 39.4619 45.4293 38.6718 45.4293 C 38.3928 45.4293 38.1572 45.3657 37.9672 45.2406 C 37.692 45.0662 37.5541 44.7865 37.5541 44.4004 C 37.5541 44.3302 37.556 44.2764 37.5601 44.2413 L 37.5603 44.2413 ZM 41.3303 45.3398 L 40.5383 45.3398 L 40.5383 42.0072 L 41.3303 42.0072 L 41.3303 45.3398 ZM 41.3303 41.6052 L 40.5383 41.6052 L 40.5383 40.9073 L 41.3303 40.9073 L 41.3303 41.6052 ZM 43.0238 45.3398 L 42.2318 45.3398 L 42.2318 40.9073 L 43.0238 40.9073 L 43.0238 45.3398 Z" fill="#ffffff"/>		</g>	</g></svg>