<?xml version="1.0" standalone="no"?><!-- Generator: Adobe Fireworks CS6, Export SVG Extension by Aaron Beall (http://fireworks.abeall.com) . Version: 0.6.1  --><!DOCTYPE svg PUBLIC "-//W3C//DTD SVG 1.1//EN" "http://www.w3.org/Graphics/SVG/1.1/DTD/svg11.dtd"><svg id="Untitled-Page%201" viewBox="0 0 57 53" style="background-color:#ffffff00" version="1.1"	xmlns="http://www.w3.org/2000/svg" xmlns:xlink="http://www.w3.org/1999/xlink" xml:space="preserve"	x="0px" y="0px" width="57px" height="53px">	<g id="Layer%201">		<g>			<path d="M 35.5725 23.0627 C 35.5725 24.0759 34.728 24.8961 33.6851 24.8961 C 32.6421 24.8961 31.7969 24.0759 31.7969 23.0627 C 31.7969 22.0513 32.6421 21.233 33.6851 21.233 C 34.728 21.233 35.5725 22.0513 35.5725 23.0627 ZM 42.2126 5.7307 C 41.6573 5.3602 40.9631 5.1752 40.1295 5.1752 C 38.9426 5.1752 37.9966 5.6041 37.2888 6.4619 L 37.2888 0 L 33.9717 0 L 33.9717 18.3712 C 33.9454 18.902 33.7288 19.376 33.1223 19.5394 C 31.3585 19.8004 30.0079 21.2784 30.0079 23.0627 C 30.0079 25.0348 31.6541 26.6326 33.6865 26.6326 C 34.595 26.6326 35.4252 26.3101 36.0671 25.7816 L 36.1006 25.7531 C 36.1912 25.6763 36.2795 25.5939 36.3619 25.5087 C 36.4895 25.4063 36.6368 25.3221 36.8112 25.3221 C 37.0332 25.3221 37.1953 25.3608 37.3787 25.5182 C 38.0973 26.304 39.0151 26.6974 40.1295 26.6974 L 40.2617 26.6901 C 41.05 26.6761 41.7152 26.494 42.2485 26.1394 C 42.8054 25.7695 43.1903 25.3555 43.4058 24.8972 C 43.6111 24.4651 43.7166 23.731 43.7263 22.7025 L 43.7291 22.5548 L 43.7291 9.317 C 43.7291 8.2074 43.6151 7.4242 43.3868 6.9691 C 43.1592 6.5128 42.7682 6.1 42.2126 5.7307 ZM 40.4114 20.9951 L 40.4114 22.2219 C 40.4114 22.6178 40.276 22.9398 40.006 23.1874 C 39.6632 23.5101 39.2233 23.6346 38.6843 23.559 C 38.2122 23.4882 37.6643 23.1577 37.2888 22.5537 L 37.2888 9.2874 C 37.7301 8.7172 38.1942 8.3964 38.6843 8.3207 C 39.2233 8.2463 39.6632 8.3698 40.006 8.693 C 40.276 8.941 40.4114 9.2625 40.4114 9.6595 L 40.4114 20.9951 ZM 48.7188 6.431 L 48.7188 5.3009 L 45.4395 5.3009 L 45.4395 26.5134 L 48.7188 26.5134 L 48.7188 9.2516 C 49.1978 8.6832 49.6876 8.3612 50.1914 8.2874 C 50.7444 8.2123 51.2109 8.3358 51.5884 8.6583 L 51.5884 5.1019 C 50.4059 5.1019 49.449 5.5455 48.7188 6.431 Z" fill="#ffffff"/>			<path d="M 10.5164 26.5012 L 7.2461 26.5012 L 7.2461 9.7413 C 7.2461 9.349 7.1107 9.0282 6.8408 8.7831 C 6.4973 8.4641 6.0574 8.3407 5.5193 8.415 C 5.0288 8.489 4.5624 8.8073 4.1234 9.3732 L 4.1234 26.5012 L 0.8523 26.5012 L 0.8523 5.4388 L 4.1234 5.4388 L 4.1234 6.5732 C 4.8503 5.7198 5.7908 5.2937 6.9443 5.2937 C 7.7712 5.2937 8.4606 5.479 9.0134 5.8451 C 9.5632 6.2125 9.9517 6.6241 10.178 7.0774 C 10.4033 7.5314 10.5164 8.308 10.5164 9.4109 L 10.5164 26.5012 L 10.5164 26.5012 Z" fill="#ffffff"/>			<path d="M 16.1575 26.5012 L 12.8871 26.5012 L 12.8871 5.4388 L 16.1575 5.4388 L 16.1575 26.5012 ZM 16.1575 3.2745 L 12.8871 3.2745 L 12.8871 0.1719 L 16.1575 0.1719 L 16.1575 3.2745 Z" fill="#ffffff"/>			<path d="M 27.8328 21.9115 C 27.8328 23.2183 27.3655 24.335 26.4312 25.2593 C 25.4956 26.1835 24.3579 26.646 23.0198 26.646 C 21.6812 26.646 20.5248 26.1865 19.553 25.2689 C 18.5803 24.35 18.0942 23.2413 18.0942 21.9412 L 18.0942 9.9985 C 18.0942 8.7002 18.5686 7.5919 19.5201 6.6737 C 20.4709 5.7538 21.6182 5.2943 22.9633 5.2943 C 24.3076 5.2943 25.4558 5.7555 26.4072 6.6749 C 27.356 7.5962 27.8328 8.7063 27.8328 10.0065 L 27.8328 17.4778 L 24.561 17.4778 L 24.561 9.8798 C 24.561 9.4611 24.405 9.0967 24.0913 8.7874 C 23.7776 8.478 23.4086 8.3237 22.9819 8.3237 C 22.5298 8.3237 22.1477 8.478 21.8345 8.7874 C 21.5203 9.0967 21.3645 9.4598 21.3645 9.8798 L 21.3645 22.061 C 21.3645 22.4811 21.5203 22.8448 21.8345 23.1548 C 22.1477 23.4611 22.5298 23.616 22.9819 23.616 C 23.4086 23.616 23.7776 23.4574 24.0913 23.142 C 24.405 22.8248 24.561 22.4502 24.561 22.0198 L 24.561 20.8026 L 27.8328 20.8026 L 27.8328 21.9115 L 27.8328 21.9115 Z" fill="#ffffff"/>			<path d="M 3.1387 34.871 L 3.1387 33.9801 L 4.0129 33.9801 L 4.0129 38.525 L 3.1012 38.525 L 2.4204 36.9077 C 2.1997 36.3817 1.9915 35.78 1.7957 35.1016 L 1.7833 35.1016 C 1.875 36.2043 1.9208 37.0608 1.9208 37.671 L 1.9208 38.525 L 1.0464 38.525 L 1.0464 33.9801 L 1.9519 33.9801 L 2.6328 35.6349 C 2.866 36.2043 3.0742 36.806 3.2573 37.4403 L 3.2699 37.4403 C 3.1824 36.2848 3.1387 35.4283 3.1387 34.871 ZM 6.356 38.525 L 6.356 38.016 L 6.3438 38.016 C 6.223 38.4117 5.9711 38.6122 5.588 38.6158 C 5.2842 38.6158 5.0715 38.5394 4.9509 38.3857 C 4.8511 38.252 4.8011 38.0316 4.8011 37.7255 L 4.8011 35.1071 L 5.6129 35.1071 L 5.6129 37.5016 C 5.6129 37.6825 5.6396 37.8162 5.694 37.901 C 5.7651 37.9735 5.8481 38.0099 5.944 38.0099 C 6.1064 38.0099 6.2147 37.933 6.2686 37.7799 C 6.3018 37.691 6.3188 37.5475 6.3188 37.3496 L 6.3188 35.1071 L 7.1309 35.1071 L 7.1309 38.525 L 6.356 38.525 L 6.356 38.525 ZM 5.4817 34.7136 L 6.0688 33.8287 L 7.0371 33.8287 L 6.1125 34.7136 L 5.4817 34.7136 ZM 10.0776 36.2946 L 9.2656 36.2946 L 9.2656 35.9132 C 9.2656 35.7196 9.1721 35.6227 8.9847 35.6227 C 8.8596 35.6227 8.7742 35.6808 8.7285 35.7982 C 8.6951 35.8872 8.6787 36.0331 8.6787 36.2346 L 8.6787 37.3616 C 8.6787 37.6123 8.7003 37.7787 8.7441 37.8622 C 8.7878 37.9446 8.8682 37.9941 8.9847 38.0099 C 9.097 38.0062 9.1721 37.9554 9.2094 37.8586 C 9.2302 37.8059 9.249 37.6891 9.2656 37.5076 L 9.2656 37.1921 L 10.0776 37.1921 L 10.0776 37.5076 C 10.0776 38.2465 9.707 38.6158 8.9659 38.6158 C 8.2329 38.6158 7.8666 38.2223 7.8666 37.4343 L 7.8666 36.2103 C 7.8666 35.4144 8.2329 35.0162 8.9659 35.0162 C 9.3447 35.0162 9.6321 35.1173 9.8279 35.3195 C 9.9945 35.4974 10.0776 35.7256 10.0776 36.004 L 10.0776 36.2946 L 10.0776 36.2946 ZM 11.6079 38.525 L 10.7959 38.525 L 10.7959 33.9801 L 11.6079 33.9801 L 11.6079 38.525 ZM 12.4019 36.1857 C 12.4019 35.8103 12.504 35.521 12.708 35.3195 C 12.9121 35.1173 13.2058 35.0162 13.5886 35.0162 C 14.1091 35.0162 14.4587 35.15 14.6382 35.4169 C 14.7712 35.6191 14.8379 35.9858 14.8379 36.5192 L 14.8379 36.9797 L 13.2137 36.9797 L 13.2137 37.4767 C 13.2137 37.8326 13.3574 38.0099 13.6448 38.0099 C 13.8986 38.0099 14.026 37.8204 14.026 37.4403 L 14.026 37.3684 L 14.8379 37.3684 L 14.8379 37.4652 C 14.8379 38.2327 14.4612 38.6158 13.7073 38.6158 C 13.2474 38.6158 12.9153 38.5081 12.71 38.292 C 12.5051 38.0758 12.4019 37.7278 12.4019 37.2467 L 12.4019 36.1857 L 12.4019 36.1857 ZM 13.2137 36.3745 L 14.026 36.3745 L 14.026 36.0767 C 14.026 35.9036 13.9958 35.7837 13.9353 35.7196 C 13.8749 35.6549 13.7634 35.6227 13.6013 35.6227 C 13.4348 35.6227 13.3242 35.6771 13.27 35.7861 C 13.2327 35.8551 13.2137 35.978 13.2137 36.1559 L 13.2137 36.3745 ZM 16.3357 36.271 L 16.3357 37.41 C 16.3357 37.6407 16.3585 37.792 16.4044 37.8646 C 16.4626 37.9615 16.5835 38.0099 16.7668 38.0099 C 16.9414 38.0099 17.056 37.9615 17.1104 37.8646 C 17.1519 37.792 17.1724 37.6407 17.1724 37.41 L 17.1724 36.271 C 17.1724 36.0566 17.1563 35.9095 17.1228 35.8285 C 17.0643 35.6912 16.9456 35.6227 16.7668 35.6227 C 16.5753 35.6227 16.45 35.6912 16.3921 35.8285 C 16.3545 35.9095 16.3357 36.0566 16.3357 36.271 ZM 16.7107 38.6158 C 16.2314 38.6158 15.9089 38.4869 15.7424 38.2284 C 15.5967 38.0026 15.5239 37.5905 15.5239 36.9918 L 15.5239 36.9374 C 15.5239 36.2346 15.5779 35.7681 15.6863 35.538 C 15.8484 35.1906 16.2087 35.0162 16.7668 35.0162 C 17.3123 35.0162 17.6659 35.1906 17.8284 35.538 C 17.9326 35.7644 17.9846 36.2303 17.9846 36.9374 L 17.9846 36.9979 C 17.9846 37.5922 17.9136 38.0026 17.7723 38.2284 C 17.6058 38.4869 17.2893 38.6158 16.8228 38.6158 L 16.7107 38.6158 L 16.7107 38.6158 ZM 21.7704 37.4045 L 21.7704 36.2649 C 21.7704 35.8369 21.6433 35.6227 21.3894 35.6227 C 21.2189 35.6227 21.1106 35.6893 21.0647 35.8225 C 21.0356 35.8993 21.021 36.053 21.021 36.2831 L 21.021 37.4222 C 21.021 37.8143 21.1396 38.0099 21.377 38.0099 C 21.6392 38.0099 21.7704 37.8077 21.7704 37.4045 ZM 21.7704 38.525 L 21.7704 38.1613 L 21.7581 38.1613 C 21.6245 38.4608 21.3916 38.6122 21.0583 38.6158 C 20.4924 38.6285 20.209 38.244 20.209 37.4652 L 20.209 36.2291 C 20.209 35.78 20.2839 35.4611 20.4341 35.271 C 20.5712 35.1016 20.7798 35.0162 21.0583 35.0162 L 21.0835 35.0162 C 21.4083 35.0162 21.6416 35.1615 21.7832 35.4526 L 21.7954 35.4526 C 21.7787 35.36 21.7704 35.259 21.7704 35.15 L 21.7704 33.9801 L 22.5823 33.9801 L 22.5823 38.525 L 21.7704 38.525 ZM 23.3318 36.1857 C 23.3318 35.8103 23.4338 35.521 23.6378 35.3195 C 23.842 35.1173 24.1355 35.0162 24.5188 35.0162 C 25.0391 35.0162 25.3888 35.15 25.5679 35.4169 C 25.701 35.6191 25.7678 35.9858 25.7678 36.5192 L 25.7678 36.9797 L 24.144 36.9797 L 24.144 37.4767 C 24.144 37.8326 24.2874 38.0099 24.5747 38.0099 C 24.8289 38.0099 24.9558 37.8204 24.9558 37.4403 L 24.9558 37.3684 L 25.7678 37.3684 L 25.7678 37.4652 C 25.7678 38.2327 25.391 38.6158 24.6372 38.6158 C 24.1772 38.6158 23.845 38.5081 23.6401 38.292 C 23.4351 38.0758 23.3318 37.7278 23.3318 37.2467 L 23.3318 36.1857 L 23.3318 36.1857 ZM 24.144 36.3745 L 24.9558 36.3745 L 24.9558 36.0767 C 24.9558 35.9036 24.9255 35.7837 24.8652 35.7196 C 24.8048 35.6549 24.6934 35.6227 24.531 35.6227 C 24.3647 35.6227 24.2542 35.6771 24.2 35.7861 C 24.1626 35.8551 24.144 35.978 24.144 36.1559 L 24.144 36.3745 L 24.144 36.3745 ZM 28.9893 38.525 L 28.1151 38.525 L 28.1151 33.9801 L 28.9893 33.9801 L 28.9893 38.525 ZM 30.6134 35.1071 L 30.6134 35.4586 L 30.6134 35.4586 C 30.752 35.1639 30.9973 35.0162 31.3501 35.0162 C 31.5938 35.0162 31.7865 35.0809 31.929 35.2106 C 32.0883 35.3516 32.1683 35.5603 32.1683 35.8345 L 32.1683 38.525 L 31.3564 38.525 L 31.3564 36.2468 C 31.3564 36.053 31.3379 35.9175 31.3003 35.8413 C 31.2505 35.7354 31.1547 35.6832 31.0131 35.6832 L 30.9943 35.6832 C 30.7402 35.6832 30.6134 35.8757 30.6134 36.2588 L 30.6134 38.525 L 29.8015 38.525 L 29.8015 35.1071 L 30.6134 35.1071 ZM 32.9867 35.6832 L 32.6743 35.6832 L 32.6743 35.1071 L 32.9867 35.1071 L 32.9867 34.7681 C 32.9867 34.469 33.0554 34.2609 33.1927 34.1439 C 33.3177 34.0345 33.5339 33.9801 33.8423 33.9801 L 34.1483 33.9801 L 34.1483 34.6107 C 34.0651 34.5865 34.0046 34.5745 33.9673 34.5745 C 33.8547 34.5745 33.7988 34.6185 33.7988 34.7075 L 33.7988 35.1071 L 34.1483 35.1071 L 34.1483 35.6832 L 33.7988 35.6832 L 33.7988 38.525 L 32.9867 38.525 L 32.9867 35.6832 L 32.9867 35.6832 ZM 35.4226 36.271 L 35.4226 37.41 C 35.4226 37.6407 35.4453 37.792 35.4912 37.8646 C 35.5496 37.9615 35.6702 38.0099 35.8535 38.0099 C 36.0281 38.0099 36.1428 37.9615 36.197 37.8646 C 36.2386 37.792 36.2595 37.6407 36.2595 37.41 L 36.2595 36.271 C 36.2595 36.0566 36.2429 35.9095 36.2095 35.8285 C 36.151 35.6912 36.0325 35.6227 35.8535 35.6227 C 35.662 35.6227 35.5371 35.6912 35.4788 35.8285 C 35.4413 35.9095 35.4226 36.0566 35.4226 36.271 L 35.4226 36.271 ZM 35.7972 38.6158 C 35.3184 38.6158 34.9956 38.4869 34.8293 38.2284 C 34.6836 38.0026 34.6106 37.5905 34.6106 36.9918 L 34.6106 36.9374 C 34.6106 36.2346 34.6648 35.7681 34.7729 35.538 C 34.9351 35.1906 35.2955 35.0162 35.8535 35.0162 C 36.3989 35.0162 36.7529 35.1906 36.9152 35.538 C 37.0193 35.7644 37.0713 36.2303 37.0713 36.9374 L 37.0713 36.9979 C 37.0713 37.5922 37.0007 38.0026 36.8591 38.2284 C 36.6926 38.4869 36.3761 38.6158 35.9097 38.6158 L 35.7972 38.6158 ZM 38.5579 35.1071 L 38.5579 35.7135 L 38.5702 35.7135 C 38.662 35.4907 38.7682 35.3291 38.8889 35.2288 C 39.0262 35.1198 39.1951 35.0586 39.3948 35.0465 L 39.3948 35.9745 C 39.3574 35.9745 39.301 35.9745 39.2262 35.9745 C 38.8014 35.9745 38.589 36.1656 38.589 36.5499 L 38.589 38.525 L 37.777 38.525 L 37.777 35.1071 L 38.5579 35.1071 L 38.5579 35.1071 ZM 40.7063 35.1071 L 40.7063 35.4586 L 40.7063 35.4586 C 40.8522 35.1639 41.1187 35.0162 41.5056 35.0162 L 41.5056 35.0162 C 41.6764 35.0162 41.8314 35.0502 41.9692 35.1198 C 42.1243 35.2008 42.2136 35.3135 42.2384 35.4586 L 42.251 35.4586 C 42.4053 35.1639 42.6769 35.0162 43.0652 35.0162 C 43.3494 35.0162 43.5679 35.0913 43.7218 35.2407 C 43.8605 35.3745 43.9292 35.5415 43.9292 35.7432 L 43.9292 38.525 L 43.1172 38.525 L 43.1172 36.2164 C 43.1172 36.0264 43.0984 35.889 43.0609 35.8042 C 43.007 35.6832 42.9067 35.6227 42.7612 35.6227 L 42.7299 35.6227 C 42.5508 35.6227 42.4323 35.6953 42.3739 35.8413 C 42.3367 35.929 42.3177 36.0748 42.3177 36.2771 L 42.3177 38.525 L 41.5056 38.525 L 41.5056 36.1741 C 41.5056 35.9918 41.4868 35.863 41.4496 35.7861 C 41.3915 35.6771 41.2808 35.6227 41.1187 35.6227 L 41.1061 35.6227 C 40.9312 35.6227 40.8167 35.6851 40.7628 35.8103 C 40.7252 35.8951 40.7063 36.0513 40.7063 36.2771 L 40.7063 38.525 L 39.8943 38.525 L 39.8943 35.1071 L 40.7063 35.1071 ZM 47.0905 38.525 L 46.3225 38.525 C 46.2847 38.4565 46.2662 38.3718 46.2662 38.2708 C 46.2662 38.226 46.2682 38.194 46.2726 38.174 L 46.2599 38.174 C 46.0597 38.4686 45.8226 38.6158 45.5477 38.6158 C 45.223 38.6158 44.9844 38.533 44.8325 38.3682 C 44.6808 38.2025 44.6047 37.9434 44.6047 37.5922 C 44.6047 37.2448 44.7256 36.9736 44.9669 36.78 C 45.0961 36.679 45.377 36.5415 45.8102 36.3684 C 46.0894 36.2546 46.2285 36.1094 46.2285 35.9314 C 46.2285 35.8915 46.2222 35.8467 46.2097 35.7982 C 46.182 35.6808 46.0568 35.6227 45.8353 35.6227 C 45.6705 35.6227 45.5602 35.6597 45.5031 35.7346 C 45.4458 35.8097 45.4166 35.9259 45.4166 36.0834 L 45.4166 36.1202 L 44.6422 36.1202 L 44.6422 36.0948 C 44.6422 35.7432 44.7212 35.4852 44.8784 35.3195 C 45.069 35.1173 45.3978 35.0162 45.8663 35.0162 C 46.3295 35.0162 46.6531 35.1173 46.8352 35.3195 C 46.9594 35.4611 47.0217 35.6711 47.0217 35.9502 L 47.0217 38.0463 C 47.0217 38.2001 47.0446 38.3591 47.0905 38.525 L 47.0905 38.525 ZM 46.2097 37.0947 L 46.2097 36.7255 C 46.0597 36.8146 45.8416 36.9598 45.5541 37.1613 C 45.4625 37.2345 45.4166 37.3719 45.4166 37.5741 C 45.4166 37.8646 45.5436 38.0099 45.7976 38.0099 C 46.0055 38.0099 46.1346 37.8986 46.1849 37.6764 C 46.2017 37.6007 46.2097 37.4059 46.2097 37.0947 L 46.2097 37.0947 ZM 48.4137 39.0709 L 48.7257 38.6042 C 48.0887 38.5594 47.7701 38.1715 47.7701 37.4403 L 47.7701 36.2103 C 47.7701 35.4144 48.1366 35.0162 48.8695 35.0162 C 49.2484 35.0162 49.5359 35.1173 49.7316 35.3195 C 49.8981 35.4974 49.9812 35.7256 49.9812 36.004 L 49.9812 36.2946 L 49.1693 36.2946 L 49.1693 35.9132 C 49.1693 35.7196 49.0753 35.6227 48.8882 35.6227 C 48.7635 35.6227 48.6779 35.6808 48.632 35.7982 C 48.5985 35.8872 48.5823 36.0331 48.5823 36.2346 L 48.5823 37.3616 C 48.5823 37.6129 48.6041 37.7787 48.6477 37.8622 C 48.6917 37.9446 48.7716 37.9941 48.8882 38.0099 C 49.0009 38.0062 49.0753 37.9554 49.1132 37.8586 C 49.134 37.8059 49.1528 37.6891 49.1693 37.5076 L 49.1693 37.1921 L 49.9812 37.1921 L 49.9812 37.5076 C 49.9812 38.1896 49.673 38.5553 49.057 38.6042 L 48.851 38.8948 L 48.8632 38.9069 C 48.9133 38.8827 48.9777 38.8706 49.057 38.8706 C 49.24 38.8706 49.3816 38.9191 49.4816 39.0159 C 49.5731 39.085 49.6189 39.192 49.6189 39.3378 C 49.6189 39.4215 49.592 39.5146 49.5376 39.6163 C 49.3796 39.8101 49.1421 39.9067 48.8258 39.9067 C 48.7092 39.9067 48.6173 39.8983 48.5511 39.8826 C 48.4636 39.8541 48.3282 39.8118 48.1448 39.7555 L 48.2638 39.5013 C 48.4761 39.5654 48.6552 39.5975 48.8008 39.5975 C 48.8673 39.5975 48.9297 39.5734 48.9882 39.5249 C 49.0464 39.4771 49.0753 39.4183 49.0753 39.3494 L 49.0753 39.3185 C 49.0547 39.2423 49.0132 39.1938 48.9506 39.1732 C 48.9091 39.1538 48.8591 39.1429 48.8008 39.1429 C 48.7299 39.1429 48.6444 39.1593 48.5448 39.192 L 48.4137 39.0709 L 48.4137 39.0709 ZM 52.9863 38.525 L 52.2183 38.525 C 52.1805 38.4565 52.1621 38.3718 52.1621 38.2708 C 52.1621 38.226 52.1641 38.194 52.1683 38.174 L 52.1558 38.174 C 51.9559 38.4686 51.7186 38.6158 51.4437 38.6158 C 51.119 38.6158 50.8806 38.533 50.7286 38.3682 C 50.5765 38.2025 50.5006 37.9434 50.5006 37.5922 C 50.5006 37.2448 50.6215 36.9736 50.863 36.78 C 50.9918 36.679 51.2732 36.5415 51.7061 36.3684 C 51.9851 36.2546 52.1245 36.1094 52.1245 35.9314 C 52.1245 35.8915 52.1182 35.8467 52.1057 35.7982 C 52.0778 35.6808 51.9529 35.6227 51.7312 35.6227 C 51.5667 35.6227 51.4559 35.6597 51.3988 35.7346 C 51.3418 35.8097 51.3124 35.9259 51.3124 36.0834 L 51.3124 36.1202 L 50.5382 36.1202 L 50.5382 36.0948 C 50.5382 35.7432 50.6174 35.4852 50.7745 35.3195 C 50.9647 35.1173 51.2939 35.0162 51.7623 35.0162 C 52.2252 35.0162 52.5491 35.1173 52.7312 35.3195 C 52.8553 35.4611 52.9176 35.6711 52.9176 35.9502 L 52.9176 38.0463 C 52.9176 38.2001 52.9407 38.3591 52.9863 38.525 ZM 52.1057 37.0947 L 52.1057 36.7255 C 51.9557 36.8146 51.7374 36.9598 51.4502 37.1613 C 51.3583 37.2345 51.3124 37.3719 51.3124 37.5741 C 51.3124 37.8646 51.4395 38.0099 51.6935 38.0099 C 51.9015 38.0099 52.031 37.8986 52.0807 37.6764 C 52.0974 37.6007 52.1057 37.4059 52.1057 37.0947 L 52.1057 37.0947 ZM 52.5427 34.0164 L 52.949 34.0164 C 52.8571 34.5054 52.6136 34.75 52.2183 34.75 C 52.1099 34.75 51.9266 34.7057 51.6686 34.6168 C 51.5146 34.5641 51.406 34.538 51.3439 34.538 C 51.2896 34.538 51.2438 34.5477 51.2063 34.5684 C 51.1689 34.5883 51.1171 34.6627 51.0503 34.7922 L 50.663 34.7922 C 50.6799 34.5624 50.7693 34.3746 50.9314 34.2288 C 51.0686 34.1078 51.2167 34.0472 51.375 34.0472 C 51.4915 34.0472 51.6532 34.0841 51.8593 34.1592 C 52.0652 34.2341 52.189 34.2711 52.2307 34.2711 C 52.3929 34.2711 52.4972 34.1864 52.5427 34.0164 L 52.5427 34.0164 ZM 54.5032 36.271 L 54.5032 37.41 C 54.5032 37.6407 54.526 37.792 54.5718 37.8646 C 54.6304 37.9615 54.7509 38.0099 54.9341 38.0099 C 55.1088 38.0099 55.2233 37.9615 55.2775 37.8646 C 55.3191 37.792 55.3398 37.6407 55.3398 37.41 L 55.3398 36.271 C 55.3398 36.0566 55.3236 35.9095 55.2899 35.8285 C 55.2316 35.6912 55.1129 35.6227 54.9341 35.6227 C 54.7424 35.6227 54.6177 35.6912 54.5592 35.8285 C 54.5219 35.9095 54.5032 36.0566 54.5032 36.271 ZM 54.8778 38.6158 C 54.3992 38.6158 54.076 38.4869 53.9098 38.2284 C 53.7643 38.0026 53.6913 37.5905 53.6913 36.9918 L 53.6913 36.9374 C 53.6913 36.2346 53.7452 35.7681 53.8536 35.538 C 54.0157 35.1906 54.376 35.0162 54.9341 35.0162 C 55.4795 35.0162 55.8336 35.1906 55.9957 35.538 C 56.0997 35.7644 56.152 36.2303 56.152 36.9374 L 56.152 36.9985 C 56.152 37.5922 56.0812 38.0026 55.9396 38.2284 C 55.7732 38.4869 55.4564 38.6158 54.9901 38.6158 L 54.8778 38.6158 L 54.8778 38.6158 ZM 0.9536 43.03 C 0.9536 42.6542 1.0557 42.3654 1.2598 42.1633 C 1.4639 41.9611 1.7572 41.8595 2.1403 41.8595 C 2.6608 41.8595 3.0104 41.9932 3.1895 42.2601 C 3.3228 42.4624 3.3893 42.8297 3.3893 43.3629 L 3.3893 43.8236 L 1.7656 43.8236 L 1.7656 44.3204 C 1.7656 44.6758 1.9092 44.8531 2.1965 44.8531 C 2.4504 44.8531 2.5776 44.6637 2.5776 44.2836 L 2.5776 44.2115 L 3.3893 44.2115 L 3.3893 44.3085 C 3.3893 45.0758 3.0127 45.4596 2.259 45.4596 C 1.7988 45.4596 1.4669 45.3518 1.2617 45.1351 C 1.0566 44.9197 0.9536 44.571 0.9536 44.0898 L 0.9536 43.03 L 0.9536 43.03 ZM 1.7656 43.2177 L 2.5776 43.2177 L 2.5776 42.9205 C 2.5776 42.7467 2.5474 42.6276 2.4868 42.5627 C 2.4265 42.4985 2.3153 42.4659 2.1526 42.4659 C 1.9861 42.4659 1.8759 42.5204 1.822 42.6294 C 1.7844 42.6984 1.7656 42.8218 1.7656 42.9991 L 1.7656 43.2177 L 1.7656 43.2177 ZM 7.6167 43.751 L 8.5037 43.751 C 8.4994 43.8073 8.493 43.8938 8.4847 44.0112 C 8.4597 44.4718 8.3579 44.8192 8.1786 45.0535 C 7.9664 45.3362 7.6335 45.4778 7.1797 45.4778 C 6.5255 45.4778 6.0903 45.2799 5.8741 44.8839 C 5.7242 44.605 5.6493 44.1044 5.6493 43.3811 L 5.6493 42.7323 C 5.6493 42.0458 5.7307 41.5629 5.8931 41.2845 C 6.1135 40.9 6.5425 40.7106 7.1797 40.7148 C 8.0457 40.7191 8.4784 41.2058 8.4784 42.1748 L 8.4784 42.2358 L 7.6167 42.2358 C 7.5751 41.8958 7.5522 41.7203 7.5481 41.7087 C 7.4856 41.5023 7.3627 41.3995 7.1797 41.3995 C 6.759 41.3995 6.5487 41.7245 6.5487 42.3751 L 6.5487 43.8048 C 6.5487 44.4634 6.7581 44.7926 7.1753 44.7926 C 7.3784 44.7926 7.5095 44.6558 7.5667 44.381 C 7.5751 44.3447 7.5918 44.134 7.6167 43.751 ZM 9.9214 43.1143 L 9.9214 44.2539 C 9.9214 44.4839 9.9442 44.6353 9.9902 44.7078 C 10.0483 44.8047 10.1693 44.8531 10.3527 44.8531 C 10.5271 44.8531 10.6417 44.8047 10.696 44.7078 C 10.7375 44.6353 10.7583 44.4839 10.7583 44.2539 L 10.7583 43.1143 C 10.7583 42.8999 10.7419 42.7528 10.7084 42.6724 C 10.6501 42.5343 10.5315 42.4659 10.3527 42.4659 C 10.1609 42.4659 10.0359 42.5343 9.9778 42.6724 C 9.9399 42.7528 9.9214 42.8999 9.9214 43.1143 L 9.9214 43.1143 ZM 10.2959 45.4596 C 9.8171 45.4596 9.4946 45.3301 9.3282 45.0717 C 9.1824 44.8458 9.1096 44.433 9.1096 43.8357 L 9.1096 43.7811 C 9.1096 43.0785 9.1636 42.6112 9.2717 42.3811 C 9.4342 42.0338 9.7944 41.8595 10.3527 41.8595 C 10.8979 41.8595 11.2517 42.0338 11.4142 42.3811 C 11.5182 42.6075 11.5703 43.0736 11.5703 43.7811 L 11.5703 43.8417 C 11.5703 44.4354 11.4991 44.8458 11.358 45.0717 C 11.1913 45.3301 10.8748 45.4596 10.4087 45.4596 L 10.2959 45.4596 L 10.2959 45.4596 ZM 13.0443 43.1143 L 13.0443 44.2539 C 13.0443 44.4839 13.0671 44.6353 13.113 44.7078 C 13.171 44.8047 13.2921 44.8531 13.4751 44.8531 C 13.6499 44.8531 13.7646 44.8047 13.8186 44.7078 C 13.8602 44.6353 13.8811 44.4839 13.8811 44.2539 L 13.8811 43.1143 C 13.8811 42.8999 13.8645 42.7528 13.8313 42.6724 C 13.7729 42.5343 13.6543 42.4659 13.4751 42.4659 C 13.2838 42.4659 13.1589 42.5343 13.1003 42.6724 C 13.0627 42.7528 13.0443 42.8999 13.0443 43.1143 L 13.0443 43.1143 ZM 13.4192 45.4596 C 12.9399 45.4596 12.6174 45.3301 12.4509 45.0717 C 12.3052 44.8458 12.2324 44.433 12.2324 43.8357 L 12.2324 43.7811 C 12.2324 43.0785 12.2864 42.6112 12.3949 42.3811 C 12.557 42.0338 12.917 41.8595 13.4751 41.8595 C 14.0208 41.8595 14.3748 42.0338 14.5369 42.3811 C 14.6409 42.6075 14.6931 43.0736 14.6931 43.7811 L 14.6931 43.8417 C 14.6931 44.4354 14.6223 44.8458 14.481 45.0717 C 14.3143 45.3301 13.9976 45.4596 13.5313 45.4596 L 13.4192 45.4596 L 13.4192 45.4596 ZM 16.1798 41.9508 L 16.1798 42.5568 L 16.1923 42.5568 C 16.2836 42.3346 16.3899 42.173 16.5104 42.0719 C 16.6479 41.9635 16.8167 41.9025 17.0166 41.8903 L 17.0166 42.8176 C 16.979 42.8176 16.9226 42.8176 16.8477 42.8176 C 16.4232 42.8176 16.2107 43.0094 16.2107 43.3932 L 16.2107 45.3688 L 15.3987 45.3688 L 15.3987 41.9508 L 16.1798 41.9508 ZM 18.9974 44.2478 L 18.9974 43.1082 C 18.9974 42.6796 18.8704 42.4659 18.6165 42.4659 C 18.4457 42.4659 18.3375 42.5325 18.2915 42.6663 C 18.2625 42.7426 18.2478 42.8962 18.2478 43.1256 L 18.2478 44.266 C 18.2478 44.6576 18.3669 44.8531 18.6038 44.8531 C 18.8661 44.8531 18.9974 44.6515 18.9974 44.2478 ZM 18.9974 45.3688 L 18.9974 45.005 L 18.985 45.005 C 18.8517 45.3041 18.6184 45.4553 18.2852 45.4596 C 17.7192 45.4718 17.436 45.088 17.436 44.3085 L 17.436 43.0724 C 17.436 42.6233 17.511 42.3049 17.6606 42.1143 C 17.7981 41.9453 18.0065 41.8595 18.2852 41.8595 L 18.3103 41.8595 C 18.6353 41.8595 18.8682 42.0052 19.0101 42.2965 L 19.0223 42.2965 C 19.0059 42.2032 18.9974 42.1022 18.9974 41.9932 L 18.9974 40.8245 L 19.8093 40.8245 L 19.8093 45.3688 L 18.9974 45.3688 L 18.9974 45.3688 ZM 20.5588 43.03 C 20.5588 42.6542 20.6609 42.3654 20.865 42.1633 C 21.069 41.9611 21.3625 41.8595 21.7454 41.8595 C 22.2659 41.8595 22.6155 41.9932 22.7949 42.2601 C 22.9281 42.4624 22.9946 42.8297 22.9946 43.3629 L 22.9946 43.8236 L 21.3708 43.8236 L 21.3708 44.3204 C 21.3708 44.6758 21.5143 44.8531 21.8015 44.8531 C 22.0557 44.8531 22.1826 44.6637 22.1826 44.2836 L 22.1826 44.2115 L 22.9946 44.2115 L 22.9946 44.3085 C 22.9946 45.0758 22.6179 45.4596 21.864 45.4596 C 21.4041 45.4596 21.072 45.3518 20.8669 45.1351 C 20.6619 44.9197 20.5588 44.571 20.5588 44.0898 L 20.5588 43.03 ZM 21.3708 43.2177 L 22.1826 43.2177 L 22.1826 42.9205 C 22.1826 42.7467 22.1523 42.6276 22.0922 42.5634 C 22.0317 42.4985 21.9202 42.4659 21.7581 42.4659 C 21.5917 42.4659 21.481 42.5204 21.4268 42.6294 C 21.3894 42.6984 21.3708 42.8218 21.3708 42.9991 L 21.3708 43.2177 L 21.3708 43.2177 ZM 24.5425 41.9508 L 24.5425 42.3026 L 24.5425 42.3026 C 24.681 42.0072 24.9269 41.8595 25.2795 41.8595 C 25.5232 41.8595 25.7157 41.9248 25.8584 42.0543 C 26.0173 42.1959 26.0978 42.403 26.0978 42.6777 L 26.0978 45.3688 L 25.2859 45.3688 L 25.2859 43.0905 C 25.2859 42.8962 25.2671 42.7606 25.2297 42.6838 C 25.1794 42.5791 25.0837 42.5265 24.9423 42.5265 L 24.9236 42.5265 C 24.6697 42.5265 24.5425 42.7183 24.5425 43.1021 L 24.5425 45.3688 L 23.7305 45.3688 L 23.7305 41.9508 L 24.5425 41.9508 L 24.5425 41.9508 ZM 29.2218 45.3688 L 28.4534 45.3688 C 28.4161 45.2998 28.3973 45.2151 28.3973 45.114 C 28.3973 45.0698 28.3992 45.0377 28.4034 45.0172 L 28.3907 45.0172 C 28.1912 45.3119 27.9539 45.4596 27.679 45.4596 C 27.3541 45.4596 27.1157 45.3766 26.9639 45.2108 C 26.8118 45.0455 26.7361 44.7871 26.7361 44.4354 C 26.7361 44.088 26.8566 43.8175 27.0981 43.6238 C 27.2273 43.5221 27.5081 43.3848 27.9412 43.2117 C 28.2205 43.0978 28.3597 42.9525 28.3597 42.7745 C 28.3597 42.7347 28.3533 42.6904 28.3411 42.6421 C 28.3127 42.5247 28.188 42.4659 27.9666 42.4659 C 27.8019 42.4659 27.6914 42.5034 27.6343 42.5779 C 27.5769 42.653 27.5479 42.7692 27.5479 42.9266 L 27.5479 42.9629 L 26.7734 42.9629 L 26.7734 42.9387 C 26.7734 42.5869 26.8525 42.3285 27.0095 42.1633 C 27.2002 41.9611 27.5291 41.8595 27.9973 41.8595 C 28.4608 41.8595 28.7843 41.9611 28.9666 42.1633 C 29.0906 42.3049 29.1528 42.5143 29.1528 42.7933 L 29.1528 44.89 C 29.1528 45.0432 29.1759 45.203 29.2218 45.3688 L 29.2218 45.3688 ZM 28.3411 43.9386 L 28.3411 43.5687 C 28.1912 43.6577 27.9727 43.8036 27.6853 44.0045 C 27.5934 44.0778 27.5479 44.2152 27.5479 44.4174 C 27.5479 44.7078 27.6749 44.8531 27.9287 44.8531 C 28.137 44.8531 28.266 44.7423 28.3159 44.5203 C 28.3325 44.4434 28.3411 44.2496 28.3411 43.9386 L 28.3411 43.9386 ZM 30.5446 45.9142 L 30.8571 45.4474 C 30.2197 45.4027 29.9014 45.0148 29.9014 44.2836 L 29.9014 43.0536 C 29.9014 42.2583 30.2677 41.8595 31.0006 41.8595 C 31.3794 41.8595 31.6669 41.9611 31.8628 42.1633 C 32.0291 42.3407 32.1123 42.5688 32.1123 42.8473 L 32.1123 43.1384 L 31.3003 43.1384 L 31.3003 42.7571 C 31.3003 42.5634 31.2065 42.4659 31.0193 42.4659 C 30.8945 42.4659 30.8091 42.5247 30.7633 42.6421 C 30.73 42.7311 30.7131 42.8763 30.7131 43.0785 L 30.7131 44.2056 C 30.7131 44.4554 30.7351 44.6219 30.7791 44.7054 C 30.8228 44.7878 30.9027 44.8373 31.0193 44.8531 C 31.1318 44.8495 31.2065 44.7987 31.2441 44.7018 C 31.2649 44.649 31.2837 44.5323 31.3003 44.3507 L 31.3003 44.0354 L 32.1123 44.0354 L 32.1123 44.3507 C 32.1123 45.0336 31.8042 45.399 31.188 45.4474 L 30.9819 45.738 L 30.9944 45.7507 C 31.0442 45.7258 31.1088 45.7139 31.188 45.7139 C 31.3713 45.7139 31.5127 45.7623 31.6127 45.859 C 31.7042 45.9281 31.75 46.0353 31.75 46.1804 C 31.75 46.2659 31.723 46.3584 31.6687 46.4595 C 31.5106 46.6532 31.2732 46.75 30.9568 46.75 C 30.8401 46.75 30.7488 46.7422 30.6821 46.7264 C 30.5945 46.698 30.4592 46.655 30.2759 46.5988 L 30.3948 46.3439 C 30.6072 46.4087 30.7861 46.4413 30.9321 46.4413 C 30.9983 46.4413 31.0608 46.4171 31.1194 46.3688 C 31.1775 46.3203 31.2065 46.2616 31.2065 46.1932 L 31.2065 46.1624 C 31.186 46.0854 31.1445 46.037 31.082 46.0171 C 31.0404 45.9965 30.9904 45.9868 30.9321 45.9868 C 30.8611 45.9868 30.7758 46.0026 30.6759 46.0353 L 30.5446 45.9142 ZM 35.1177 45.3688 L 34.3492 45.3688 C 34.3119 45.2998 34.2931 45.2151 34.2931 45.114 C 34.2931 45.0698 34.2952 45.0377 34.2993 45.0172 L 34.2866 45.0172 C 34.0872 45.3119 33.8496 45.4596 33.575 45.4596 C 33.2501 45.4596 33.0117 45.3766 32.8599 45.2108 C 32.7078 45.0455 32.6318 44.7871 32.6318 44.4354 C 32.6318 44.088 32.7524 43.8175 32.9939 43.6238 C 33.1232 43.5221 33.4043 43.3848 33.8369 43.2117 C 34.1162 43.0978 34.2556 42.9525 34.2556 42.7745 C 34.2556 42.7347 34.2498 42.6904 34.2371 42.6421 C 34.2087 42.5247 34.0839 42.4659 33.8623 42.4659 C 33.6978 42.4659 33.5874 42.5034 33.53 42.5779 C 33.4729 42.653 33.4437 42.7692 33.4437 42.9266 L 33.4437 42.9629 L 32.6692 42.9629 L 32.6692 42.9387 C 32.6692 42.5869 32.7483 42.3285 32.9055 42.1633 C 33.0959 41.9611 33.425 41.8595 33.8933 41.8595 C 34.3567 41.8595 34.6803 41.9611 34.8625 42.1633 C 34.9863 42.3049 35.0488 42.5143 35.0488 42.7933 L 35.0488 44.89 C 35.0488 45.0432 35.0717 45.203 35.1177 45.3688 L 35.1177 45.3688 ZM 34.2371 43.9386 L 34.2371 43.5687 C 34.0872 43.6577 33.8684 43.8036 33.5811 44.0045 C 33.4893 44.0778 33.4437 44.2152 33.4437 44.4174 C 33.4437 44.7078 33.5707 44.8531 33.8247 44.8531 C 34.033 44.8531 34.1621 44.7423 34.2119 44.5203 C 34.2284 44.4434 34.2371 44.2496 34.2371 43.9386 ZM 34.6743 40.8601 L 35.0801 40.8601 C 34.9884 41.3486 34.745 41.5931 34.3492 41.5931 C 34.241 41.5931 34.0579 41.549 33.7996 41.46 C 33.6456 41.4072 33.5374 41.3812 33.4749 41.3812 C 33.4208 41.3812 33.3749 41.391 33.3374 41.4116 C 33.2999 41.4321 33.2479 41.5066 33.1814 41.6355 L 32.7939 41.6355 C 32.8109 41.4055 32.9004 41.2178 33.0627 41.0726 C 33.2002 40.9515 33.3478 40.891 33.5062 40.891 C 33.6228 40.891 33.7841 40.928 33.9902 41.0024 C 34.1963 41.0774 34.3203 41.1143 34.3618 41.1143 C 34.5243 41.1143 34.6282 41.0297 34.6743 40.8601 L 34.6743 40.8601 ZM 36.6343 43.1143 L 36.6343 44.2539 C 36.6343 44.4839 36.657 44.6353 36.703 44.7078 C 36.7612 44.8047 36.8818 44.8531 37.0652 44.8531 C 37.24 44.8531 37.3545 44.8047 37.4088 44.7078 C 37.4504 44.6353 37.4712 44.4839 37.4712 44.2539 L 37.4712 43.1143 C 37.4712 42.8999 37.4546 42.7528 37.4211 42.6724 C 37.3629 42.5343 37.2439 42.4659 37.0652 42.4659 C 36.8735 42.4659 36.7488 42.5343 36.6904 42.6724 C 36.653 42.7528 36.6343 42.8999 36.6343 43.1143 L 36.6343 43.1143 ZM 37.0089 45.4596 C 36.53 45.4596 36.2074 45.3301 36.0408 45.0723 C 35.8953 44.8458 35.8223 44.433 35.8223 43.8357 L 35.8223 43.7811 C 35.8223 43.0785 35.8762 42.6112 35.9846 42.3811 C 36.147 42.0338 36.5073 41.8595 37.0652 41.8595 C 37.6108 41.8595 37.9646 42.0338 38.127 42.3811 C 38.2311 42.6075 38.2831 43.0736 38.2831 43.7811 L 38.2831 43.8417 C 38.2831 44.4354 38.2122 44.8458 38.0709 45.0717 C 37.9042 45.3301 37.5876 45.4596 37.1213 45.4596 L 37.0089 45.4596 ZM 42.069 44.2478 L 42.069 43.1082 C 42.069 42.6796 41.9421 42.4659 41.6877 42.4659 C 41.5175 42.4659 41.4091 42.5325 41.3633 42.6663 C 41.3342 42.7426 41.3196 42.8962 41.3196 43.1256 L 41.3196 44.266 C 41.3196 44.6576 41.4381 44.8531 41.6757 44.8531 C 41.9379 44.8531 42.069 44.6515 42.069 44.2478 L 42.069 44.2478 ZM 42.069 45.3688 L 42.069 45.005 L 42.0565 45.005 C 41.9232 45.3041 41.6901 45.4553 41.3571 45.4596 C 40.7906 45.4718 40.5076 45.088 40.5076 44.3085 L 40.5076 43.0724 C 40.5076 42.6233 40.5826 42.3049 40.7325 42.1143 C 40.8699 41.9453 41.0779 41.8595 41.3571 41.8595 L 41.382 41.8595 C 41.7068 41.8595 41.9397 42.0052 42.0817 42.2965 L 42.0941 42.2965 C 42.077 42.2032 42.069 42.1022 42.069 41.9932 L 42.069 40.8245 L 42.881 40.8245 L 42.881 45.3688 L 42.069 45.3688 ZM 44.4414 43.1143 L 44.4414 44.2539 C 44.4414 44.4839 44.4644 44.6353 44.5101 44.7078 C 44.5685 44.8047 44.6892 44.8531 44.8723 44.8531 C 45.0472 44.8531 45.1617 44.8047 45.2156 44.7078 C 45.2576 44.6353 45.2781 44.4839 45.2781 44.2539 L 45.2781 43.1143 C 45.2781 42.8999 45.2616 42.7528 45.2281 42.6724 C 45.17 42.5343 45.051 42.4659 44.8723 42.4659 C 44.6808 42.4659 44.5558 42.5343 44.4974 42.6724 C 44.4601 42.7528 44.4414 42.8999 44.4414 43.1143 L 44.4414 43.1143 ZM 44.8162 45.4596 C 44.3373 45.4596 44.0148 45.3301 43.8478 45.0723 C 43.7024 44.8458 43.6294 44.433 43.6294 43.8357 L 43.6294 43.7811 C 43.6294 43.0785 43.6836 42.6112 43.7916 42.3811 C 43.9543 42.0338 44.3145 41.8595 44.8723 41.8595 C 45.4178 41.8595 45.7716 42.0338 45.9337 42.3811 C 46.0383 42.6075 46.09 43.0736 46.09 43.7811 L 46.09 43.8417 C 46.09 44.4354 46.0195 44.8458 45.8776 45.0723 C 45.7113 45.3301 45.3949 45.4596 44.9283 45.4596 L 44.8162 45.4596 ZM 1.8567 48.7136 L 1.8567 50.0227 L 2.325 50.0227 C 2.7498 50.0227 2.9619 49.7867 2.9619 49.314 C 2.9619 49.067 2.9069 48.8999 2.7937 48.8165 C 2.6987 48.7469 2.5184 48.7136 2.2561 48.7136 L 1.8567 48.7136 ZM 1.8567 52.5922 L 0.9823 52.5922 L 0.9823 48.0471 L 2.7684 48.0471 C 3.1558 48.0471 3.4431 48.1827 3.6305 48.4532 C 3.7842 48.6754 3.8616 48.9702 3.8616 49.3381 C 3.8616 49.8309 3.7153 50.1903 3.4243 50.4169 C 3.191 50.5984 2.8789 50.6891 2.4873 50.6891 L 1.8567 50.6891 L 1.8567 52.5922 ZM 5.1733 50.3381 L 5.1733 51.4772 C 5.1733 51.7072 5.197 51.858 5.2419 51.9313 C 5.301 52.0281 5.421 52.077 5.604 52.077 C 5.7789 52.077 5.8931 52.0281 5.9478 51.9313 C 5.9886 51.8585 6.0103 51.7072 6.0103 51.4772 L 6.0103 50.3381 C 6.0103 50.1239 5.9939 49.9762 5.96 49.8956 C 5.9023 49.7582 5.7831 49.6893 5.604 49.6893 C 5.4128 49.6893 5.2893 49.7589 5.2292 49.8956 C 5.1936 49.9767 5.1733 50.1239 5.1733 50.3381 L 5.1733 50.3381 ZM 5.5479 52.6829 C 5.0692 52.6829 4.7463 52.5533 4.5798 52.2955 C 4.4343 52.0692 4.3613 51.6571 4.3613 51.059 L 4.3613 51.0045 C 4.3613 50.3011 4.4158 49.8351 4.5236 49.6045 C 4.6863 49.2571 5.0461 49.0834 5.604 49.0834 C 6.1495 49.0834 6.5043 49.2571 6.666 49.6045 C 6.7705 49.8302 6.822 50.2982 6.822 51.0045 L 6.822 51.0656 C 6.822 51.6588 6.7527 52.0697 6.6099 52.2955 C 6.4448 52.5546 6.1265 52.6829 5.6602 52.6829 L 5.5479 52.6829 ZM 8.3461 49.1742 L 8.3461 49.5258 L 8.3461 49.5258 C 8.4845 49.2303 8.73 49.0834 9.083 49.0834 C 9.3264 49.0834 9.5187 49.1494 9.6616 49.2777 C 9.8203 49.4193 9.901 49.6274 9.901 49.9017 L 9.901 52.5922 L 9.0889 52.5922 L 9.0889 50.314 C 9.0889 50.1196 9.0699 49.9846 9.033 49.9078 C 8.9827 49.8031 8.887 49.7504 8.7456 49.7504 L 8.7268 49.7504 C 8.4731 49.7504 8.3461 49.9423 8.3461 50.3259 L 8.3461 52.5922 L 7.5339 52.5922 L 7.5339 49.1742 L 8.3461 49.1742 L 8.3461 49.1742 ZM 11.8506 51.9916 L 11.8506 52.6042 C 11.6345 52.6243 11.4971 52.6345 11.4387 52.6345 C 10.9431 52.6345 10.6954 52.4445 10.6954 52.0648 L 10.6954 49.7504 L 10.3645 49.7504 L 10.3645 49.1742 L 10.6954 49.1742 L 10.6954 48.2347 L 11.5073 48.2347 L 11.5073 49.1742 L 11.8506 49.1742 L 11.8506 49.7504 L 11.5073 49.7504 L 11.5073 51.8712 C 11.5073 51.9518 11.5905 51.9916 11.7322 51.9916 C 11.7905 51.9916 11.83 51.9916 11.8506 51.9916 ZM 13.1553 50.3381 L 13.1553 51.4772 C 13.1553 51.7072 13.179 51.858 13.224 51.9313 C 13.2827 52.0281 13.4028 52.077 13.5862 52.077 C 13.7607 52.077 13.8751 52.0281 13.9294 51.9313 C 13.9707 51.8585 13.9921 51.7072 13.9921 51.4772 L 13.9921 50.3381 C 13.9921 50.1239 13.9756 49.9762 13.9421 49.8956 C 13.884 49.7582 13.7653 49.6893 13.5862 49.6893 C 13.3945 49.6893 13.2711 49.7589 13.2113 49.8956 C 13.1755 49.9767 13.1553 50.1239 13.1553 50.3381 ZM 13.53 52.6829 C 13.051 52.6829 12.7284 52.5533 12.5618 52.2955 C 12.4161 52.0692 12.3433 51.6571 12.3433 51.059 L 12.3433 51.0045 C 12.3433 50.3011 12.3976 49.8351 12.5056 49.6045 C 12.6681 49.2571 13.0281 49.0834 13.5862 49.0834 C 14.1316 49.0834 14.4865 49.2571 14.6477 49.6045 C 14.7527 49.8302 14.804 50.2982 14.804 51.0045 L 14.804 51.0656 C 14.804 51.6588 14.7349 52.0697 14.5916 52.2955 C 14.4269 52.5546 14.1085 52.6829 13.6421 52.6829 L 13.53 52.6829 Z" fill="#ffffff"/>			<path d="M 17.9724 51.9106 L 18.3533 51.9106 C 18.499 51.9106 18.6093 51.8949 18.6843 51.8622 C 18.863 51.7859 18.9528 51.5753 18.9528 51.2327 C 18.9528 50.9735 18.9138 50.7957 18.8341 50.6989 C 18.7432 50.5892 18.5674 50.5354 18.3096 50.5354 L 17.9724 50.5354 L 17.9724 51.9106 L 17.9724 51.9106 ZM 17.9724 49.869 L 18.2158 49.869 C 18.499 49.869 18.6797 49.8158 18.7592 49.7111 C 18.8208 49.6299 18.8525 49.4666 18.8525 49.2202 C 18.8525 49.0343 18.8232 48.9048 18.7655 48.8328 C 18.6946 48.7438 18.5649 48.699 18.3782 48.699 L 17.9724 48.699 L 17.9724 49.869 ZM 18.6405 52.5775 L 17.0979 52.5775 L 17.0979 48.0326 L 18.5092 48.0326 C 18.9926 48.0326 19.3232 48.1439 19.5026 48.3655 C 19.656 48.5562 19.7334 48.8285 19.7334 49.1838 C 19.7334 49.6849 19.5461 50.0022 19.1711 50.1354 L 19.1711 50.1481 C 19.6255 50.208 19.8523 50.5597 19.8523 51.2012 C 19.8523 51.4403 19.8318 51.6261 19.7899 51.7593 C 19.699 52.0461 19.5616 52.2544 19.3805 52.3839 C 19.1995 52.5122 18.9528 52.5775 18.6405 52.5775 L 18.6405 52.5775 ZM 21.4512 50.6202 L 21.4512 52.5775 L 20.5767 52.5775 L 20.5767 48.0326 L 22.2318 48.0326 C 23.1187 48.0326 23.5621 48.3964 23.5621 49.1233 C 23.5621 49.7897 23.3228 50.1553 22.844 50.2201 L 22.844 50.2328 C 23.2936 50.2885 23.5186 50.5638 23.5186 51.0565 L 23.5186 51.2502 C 23.5186 52.0013 23.5809 52.416 23.7058 52.4929 L 23.7058 52.5775 L 22.7439 52.5775 C 22.6814 52.4076 22.6504 52.0909 22.6504 51.6261 L 22.6504 51.4258 C 22.6504 51.2242 22.6379 51.0741 22.6128 50.9779 C 22.5715 50.8162 22.4834 50.7177 22.3505 50.6805 C 22.2051 50.6407 21.9963 50.6202 21.7258 50.6202 L 21.4512 50.6202 L 21.4512 50.6202 ZM 21.4512 48.699 L 21.4512 49.9537 L 22.1382 49.9537 C 22.4792 49.9537 22.6504 49.7354 22.6504 49.2996 C 22.6504 49.0604 22.6006 48.8962 22.5005 48.808 C 22.4175 48.7354 22.2837 48.699 22.1005 48.699 L 21.4512 48.699 L 21.4512 48.699 Z" fill="#ffffff"/>		</g>	</g></svg>