<?xml version="1.0" standalone="no"?><!-- Generator: Adobe Fireworks CS6, Export SVG Extension by Aaron Beall (http://fireworks.abeall.com) . Version: 0.6.1  --><!DOCTYPE svg PUBLIC "-//W3C//DTD SVG 1.1//EN" "http://www.w3.org/Graphics/SVG/1.1/DTD/svg11.dtd"><svg id="Untitled-Page%201" viewBox="0 0 19 20" style="background-color:#ffffff00" version="1.1"	xmlns="http://www.w3.org/2000/svg" xmlns:xlink="http://www.w3.org/1999/xlink" xml:space="preserve"	x="0px" y="0px" width="19px" height="20px">	<g id="Layer%201">		<g>			<rect x="7.3336" y="1.9366" width="11.3336" height="2.6761" fill="#aaaaaa"/>			<rect x="7.3336" y="9.2958" width="11.3336" height="2.6761" fill="#aaaaaa"/>			<rect x="7.3336" y="16.6549" width="11.3336" height="2.6761" fill="#aaaaaa"/>			<path id="Ellipse" d="M 0.0001 2.9402 C 0.0001 1.6469 1.0447 0.5986 2.3334 0.5986 C 3.6222 0.5986 4.6668 1.6469 4.6668 2.9402 C 4.6668 4.2334 3.6222 5.2817 2.3334 5.2817 C 1.0447 5.2817 0.0001 4.2334 0.0001 2.9402 Z" fill="#aaaaaa"/>			<path id="Ellipse2" d="M 0.0001 10.2993 C 0.0001 9.0061 1.0447 7.9577 2.3334 7.9577 C 3.6222 7.9577 4.6668 9.0061 4.6668 10.2993 C 4.6668 11.5925 3.6222 12.6408 2.3334 12.6408 C 1.0447 12.6408 0.0001 11.5925 0.0001 10.2993 Z" fill="#aaaaaa"/>			<path id="Ellipse3" d="M 0.0001 17.6584 C 0.0001 16.3652 1.0447 15.3169 2.3334 15.3169 C 3.6222 15.3169 4.6668 16.3652 4.6668 17.6584 C 4.6668 18.9517 3.6222 20 2.3334 20 C 1.0447 20 0.0001 18.9517 0.0001 17.6584 Z" fill="#aaaaaa"/>		</g>	</g></svg>