<?xml version="1.0" standalone="no"?><!-- Generator: Adobe Fireworks CS6, Export SVG Extension by Aaron Beall (http://fireworks.abeall.com) . Version: 0.6.1  --><!DOCTYPE svg PUBLIC "-//W3C//DTD SVG 1.1//EN" "http://www.w3.org/Graphics/SVG/1.1/DTD/svg11.dtd"><svg id="Untitled-Page%201" viewBox="0 0 67 85" style="background-color:#ffffff00" version="1.1"	xmlns="http://www.w3.org/2000/svg" xmlns:xlink="http://www.w3.org/1999/xlink" xml:space="preserve"	x="0px" y="0px" width="67px" height="85px">	<g id="Layer%201">		<path d="M 54.1641 68.2729 C 56.0957 68.2729 57.668 69.8452 57.668 71.7778 C 57.668 73.71 56.0957 75.2822 54.1641 75.2822 C 52.2314 75.2822 50.6592 73.71 50.6592 71.7778 C 50.6592 69.8452 52.2314 68.2729 54.1641 68.2729 ZM 54.1641 38.7329 C 56.0957 38.7329 57.668 40.3052 57.668 42.2378 C 57.668 44.1699 56.0957 45.7422 54.1641 45.7422 C 52.2314 45.7422 50.6592 44.1699 50.6592 42.2378 C 50.6592 40.3052 52.2314 38.7329 54.1641 38.7329 ZM 17.035 24.86 C 21.7211 23.0535 25.0527 18.5009 25.0527 13.1855 C 25.0527 6.2905 19.4438 0.6807 12.5488 0.6807 C 5.6538 0.6807 0.0439 6.2905 0.0439 13.1855 C 0.0439 18.4951 3.3716 23.0445 8.05 24.855 L 8.0488 28.5308 C 8.0015 29.0733 7.9453 30.1393 8.05 31.51 L 8.0488 57.583 C 7.9048 59.2339 7.668 65.751 12.186 70.8506 C 15.5181 74.6113 20.4219 76.5181 26.7617 76.5181 L 42.59 76.52 C 44.4613 81.0714 48.9455 84.2822 54.1641 84.2822 C 61.0586 84.2822 66.668 78.6729 66.668 71.7778 C 66.668 64.8828 61.0586 59.2729 54.1641 59.2729 C 48.7637 59.2729 44.1509 62.7157 42.405 67.52 L 26.7617 67.5181 C 23.1382 67.5181 20.5132 66.6455 18.96 64.9238 C 16.6357 62.3486 17.0166 58.3481 17.0161 58.3472 L 17.03 45.465 C 19.7506 46.7939 23.0037 47.4658 26.7617 47.4658 L 42.805 47.465 C 44.7881 51.7565 49.134 54.7422 54.1641 54.7422 C 61.0586 54.7422 66.668 49.1328 66.668 42.2378 C 66.668 35.3428 61.0586 29.7329 54.1641 29.7329 C 48.5826 29.7329 43.8434 33.4075 42.24 38.465 L 26.7617 38.4658 C 23.1382 38.4658 20.5132 37.5933 18.96 35.8716 C 17.6228 34.39 17.1792 32.437 17.045 31.045 L 17.0488 29.2422 L 17.015 29.24 L 17.035 24.86 ZM 12.5488 9.6807 C 14.481 9.6807 16.0532 11.2529 16.0532 13.1855 C 16.0532 15.1177 14.481 16.6899 12.5488 16.6899 C 10.6162 16.6899 9.0439 15.1177 9.0439 13.1855 C 9.0439 11.2529 10.6162 9.6807 12.5488 9.6807 Z" fill="#ffffff"/>	</g></svg>