<?xml version="1.0" standalone="no"?><!-- Generator: Adobe Fireworks CS6, Export SVG Extension by Aaron Beall (http://fireworks.abeall.com) . Version: 0.6.1  --><!DOCTYPE svg PUBLIC "-//W3C//DTD SVG 1.1//EN" "http://www.w3.org/Graphics/SVG/1.1/DTD/svg11.dtd"><svg id="Untitled-Page%201" viewBox="0 0 109 85" style="background-color:#ffffff00" version="1.1"	xmlns="http://www.w3.org/2000/svg" xmlns:xlink="http://www.w3.org/1999/xlink" xml:space="preserve"	x="0px" y="0px" width="109px" height="85px">	<g id="Layer%201">		<g>			<path d="M 41.9541 0.8691 C 18.9463 0.8691 0.2949 15.4482 0.2949 33.4326 C 0.2949 41.5967 4.1475 49.0518 10.4971 54.7676 C 9.9648 58.542 9.2031 63.9434 8.791 66.8701 C 8.1143 71.6729 11.002 73.0029 13.9219 71.251 C 15.9229 70.0498 22.2344 65.9697 26.0088 63.5205 C 30.9209 65.1123 36.3047 65.9951 41.9541 65.9951 C 64.9619 65.9951 83.6133 51.417 83.6133 33.4326 C 83.6133 15.4482 64.9619 0.8691 41.9541 0.8691 Z" fill="#ffffff"/>			<path d="M 108.7588 58.4463 C 108.7588 49.1514 101.4297 41.1748 90.9775 37.7568 C 90.9463 54.5225 75.3223 68.3652 55.0449 70.5869 C 60.2354 76.7969 69.2822 80.9131 79.584 80.9131 C 83.5791 80.9131 87.3848 80.293 90.8516 79.1738 C 91.7744 79.7529 96.8281 82.9209 99.0713 84.3271 C 101.5449 85.8789 102.9854 84.6182 102.7393 82.583 C 102.5557 81.0684 101.7539 75.9287 101.3545 73.3975 C 105.958 69.4248 108.7588 64.1885 108.7588 58.4463 Z" fill="#ffffff"/>		</g>	</g></svg>