<?xml version="1.0" standalone="no"?><!-- Generator: Adobe Fireworks CS6, Export SVG Extension by Aaron Beall (http://fireworks.abeall.com) . Version: 0.6.1  --><!DOCTYPE svg PUBLIC "-//W3C//DTD SVG 1.1//EN" "http://www.w3.org/Graphics/SVG/1.1/DTD/svg11.dtd"><svg id="Untitled-Page%201" viewBox="0 0 13 14" style="background-color:#ffffff00" version="1.1"	xmlns="http://www.w3.org/2000/svg" xmlns:xlink="http://www.w3.org/1999/xlink" xml:space="preserve"	x="0px" y="0px" width="13px" height="14px">	<g id="Layer%201">		<g>			<path d="M 4.2998 11.2151 C 4.5642 11.2151 4.8142 10.9599 4.8142 10.6899 L 4.8142 5.2828 C 4.8142 4.9736 4.6027 4.7577 4.2998 4.7577 C 3.9968 4.7577 3.7853 4.9736 3.7853 5.2828 L 3.7853 10.6899 C 3.7853 10.9991 3.9968 11.2151 4.2998 11.2151 Z" fill="#666666"/>			<path d="M 12.4856 2.5437 L 9.1045 2.5437 C 8.8386 1.3522 7.8109 0.5 6.6147 0.5 C 5.4185 0.5 4.3909 1.3522 4.125 2.5437 L 0.5144 2.5437 C 0.2115 2.5437 0 2.7596 0 3.0688 C 0 3.3779 0.2115 3.5939 0.5144 3.5939 L 1.2826 3.5939 L 1.2826 10.8887 C 1.2826 12.3286 2.4303 13.5 3.8409 13.5 L 8.9297 13.5 C 10.3164 13.5 11.488 12.3041 11.488 10.8887 L 11.488 3.5939 L 12.1415 3.5939 L 12.4856 3.5939 C 12.7885 3.5939 13 3.3779 13 3.0688 C 13 2.7988 12.75 2.5437 12.4856 2.5437 ZM 6.6147 1.5502 C 7.2529 1.5502 7.8066 1.951 8.0153 2.5437 L 5.1819 2.5437 C 5.4249 1.9427 5.981 1.5502 6.6147 1.5502 ZM 10.4591 10.8887 C 10.4591 11.7495 9.7729 12.4498 8.9297 12.4498 L 3.8409 12.4498 C 2.9976 12.4498 2.3115 11.7495 2.3115 10.8887 L 2.3115 3.5939 L 10.4591 3.5939 L 10.4591 10.8887 Z" fill="#666666"/>			<path d="M 8.4708 11.2151 C 8.7354 11.2151 8.9854 10.9599 8.9854 10.6899 L 8.9854 5.2828 C 8.9854 4.9736 8.7737 4.7577 8.4708 4.7577 C 8.168 4.7577 7.9564 4.9736 7.9564 5.2828 L 7.9564 10.6899 C 7.9564 10.9991 8.168 11.2151 8.4708 11.2151 Z" fill="#666666"/>			<path d="M 6.3853 11.2151 C 6.6498 11.2151 6.8997 10.9599 6.8997 10.6899 L 6.8997 5.2828 C 6.8997 4.9736 6.6882 4.7577 6.3853 4.7577 C 6.0824 4.7577 5.8708 4.9736 5.8708 5.2828 L 5.8708 10.6899 C 5.8708 10.9991 6.0824 11.2151 6.3853 11.2151 Z" fill="#666666"/>		</g>	</g></svg>