<?xml version="1.0" standalone="no"?><!-- Generator: Adobe Fireworks CS6, Export SVG Extension by Aaron Beall (http://fireworks.abeall.com) . Version: 0.6.1  --><!DOCTYPE svg PUBLIC "-//W3C//DTD SVG 1.1//EN" "http://www.w3.org/Graphics/SVG/1.1/DTD/svg11.dtd"><svg id="Untitled-Page%201" viewBox="0 0 89 88" style="background-color:#ffffff00" version="1.1"	xmlns="http://www.w3.org/2000/svg" xmlns:xlink="http://www.w3.org/1999/xlink" xml:space="preserve"	x="0px" y="0px" width="89px" height="88px">	<g id="Layer%201">		<g>			<path d="M 8.5 12 C 8.5 9.79 10.29 8 12.5 8 L 24.5 8 L 24.5 0 L 12.5 0 C 5.8701 0 0.5 5.3701 0.5 12 L 0.5 24 L 8.5 24 L 8.5 12 Z" fill="#555555"/>			<path d="M 32.5 0 L 56.5 0 L 56.5 8 L 32.5 8 L 32.5 0 Z" fill="#555555"/>			<path d="M 0.5 32 L 8.5 32 L 8.5 56 L 0.5 56 L 0.5 32 Z" fill="#555555"/>			<path d="M 12.5 80 C 10.29 80 8.5 78.21 8.5 76 L 8.5 64 L 0.5 64 L 0.5 76 C 0.5 82.6299 5.8701 88 12.5 88 L 24.5 88 L 24.5 80 L 12.5 80 Z" fill="#555555"/>			<path d="M 80.5 32 L 88.5 32 L 88.5 56 L 80.5 56 L 80.5 32 Z" fill="#555555"/>			<path d="M 76.5 0 L 64.5 0 L 64.5 8 L 76.5 8 C 78.71 8 80.5 9.79 80.5 12 L 80.5 24 L 88.5 24 L 88.5 12 C 88.5 5.3701 83.1299 0 76.5 0 Z" fill="#555555"/>			<path d="M 32.5 80 L 56.5 80 L 56.5 88 L 32.5 88 L 32.5 80 Z" fill="#555555"/>			<path d="M 80.5 76 C 80.5 78.21 78.71 80 76.5 80 L 64.5 80 L 64.5 88 L 76.5 88 C 83.1299 88 88.5 82.6299 88.5 76 L 88.5 64 L 80.5 64 L 80.5 76 Z" fill="#555555"/>		</g>	</g></svg>