<?xml version="1.0" standalone="no"?><!-- Generator: Adobe Fireworks CS6, Export SVG Extension by Aaron Beall (http://fireworks.abeall.com) . Version: 0.6.1  --><!DOCTYPE svg PUBLIC "-//W3C//DTD SVG 1.1//EN" "http://www.w3.org/Graphics/SVG/1.1/DTD/svg11.dtd"><svg id="Untitled-Page%201" viewBox="0 0 82 72" style="background-color:#ffffff00" version="1.1"	xmlns="http://www.w3.org/2000/svg" xmlns:xlink="http://www.w3.org/1999/xlink" xml:space="preserve"	x="0px" y="0px" width="82px" height="72px">	<g id="Layer%201">		<g>			<path d="M 12.6597 20.1172 C 12.6597 20.1172 10.8516 20.4785 10.8516 22.1064 C 10.8516 23.7344 11.5747 26.2656 12.6597 27.5313 C 13.7446 28.7969 14.7495 28.4746 14.8296 31.5088 C 14.8628 32.7744 17.8291 36.1982 18.1826 36.8662 C 18.5361 37.5342 18.1826 42.4424 18.1826 42.4424 C 18.1826 42.4424 14.0596 47.624 12.3315 48.6064 C 10.6035 49.5889 0.5889 53.0449 0.5889 55.6367 C 0.5889 58.2285 0.5889 71.5195 0.5889 71.5195 L 56.4136 71.5195 L 56.4136 60.0479 C 56.4136 60.0479 56.9248 57.0479 48.9248 53.5479 C 40.9248 50.0479 31.7583 46.5479 31.4248 42.5479 C 31.0913 38.5479 31.5913 37.2148 31.5913 37.2148 C 31.5913 37.2148 34.2134 34.0068 34.7104 32.748 C 35.2075 31.4893 35.373 28.6719 35.373 28.6719 C 35.373 28.6719 37.5908 27.5068 38.0493 25.7568 C 38.5078 24.0068 38.3828 21.2979 37.7578 20.5898 C 37.1328 19.8818 36.5493 20.1172 36.5493 20.1172 C 36.5493 20.1172 37.585 16.4629 37.7163 14.1318 C 38.0078 8.9648 35.2578 2.5879 29.0078 1.3818 C 25.2085 0.6484 22.1748 0.3936 18.4663 2.2568 C 16.0078 3.4922 12.2158 6.9639 12.2578 12.5479 C 12.2998 18.1318 12.6597 20.1172 12.6597 20.1172 Z" fill="#ffffff"/>			<path d="M 75.6499 52.1582 C 69.3667 49.4102 62.167 46.6611 61.9053 43.5195 C 61.6436 40.3779 62.0361 39.3301 62.0361 39.3301 C 62.0361 39.3301 64.0957 36.8115 64.4858 35.8223 C 64.8765 34.834 65.0063 32.6211 65.0063 32.6211 C 65.0063 32.6211 66.7485 31.7051 67.1084 30.3311 C 67.4683 28.957 67.3701 26.8291 66.8794 26.2725 C 66.3887 25.7158 65.9302 25.9004 65.9302 25.9004 C 65.9302 25.9004 66.7437 23.0322 66.8467 21.2002 C 67.0757 17.1426 64.916 12.1328 60.0068 11.1865 C 57.0229 10.6094 54.6401 10.4102 51.7275 11.874 C 49.7959 12.8438 46.8179 15.5703 46.8506 19.9561 C 46.8843 24.3418 47.1665 25.9004 47.1665 25.9004 C 47.1665 25.9004 45.7466 26.1855 45.7466 27.4639 C 45.7466 28.7422 46.314 30.7305 47.1665 31.7256 C 48.019 32.7178 48.8081 32.4658 48.8711 34.8496 C 48.8965 35.8428 51.2271 38.5322 51.5039 39.0566 C 51.7822 39.582 51.5039 43.4365 51.5039 43.4365 C 51.5039 43.4365 50.1055 45.1914 48.7612 46.6162 C 52.2925 48.2363 61.7852 53.0254 62.3623 57.9316 C 63.0723 63.9668 62.3623 71.5195 62.3623 71.5195 L 81.5322 71.5195 L 81.5322 57.2637 C 81.5322 57.2637 81.9336 54.9082 75.6499 52.1582 Z" fill="#ffffff"/>		</g>	</g></svg>