<?xml version="1.0" standalone="no"?><!-- Generator: Adobe Fireworks CS6, Export SVG Extension by Aaron Beall (http://fireworks.abeall.com) . Version: 0.6.1  --><!DOCTYPE svg PUBLIC "-//W3C//DTD SVG 1.1//EN" "http://www.w3.org/Graphics/SVG/1.1/DTD/svg11.dtd"><svg id="Untitled-Page%201" viewBox="0 0 12 16" style="background-color:#ffffff00" version="1.1"	xmlns="http://www.w3.org/2000/svg" xmlns:xlink="http://www.w3.org/1999/xlink" xml:space="preserve"	x="0px" y="0px" width="12px" height="16px">	<g id="Layer%201">		<g>			<path d="M 0.4746 12 L 0.4746 13.6079 C 0.4746 14.6529 1.3218 15.5 2.3667 15.5 L 10.1079 15.5 C 11.1528 15.5 12 14.6529 12 13.6079 L 12 12 C 12 10.3178 10.812 8.9113 9.23 8.575 C 8.4725 9.1543 7.5272 9.5 6.5 9.5 C 5.4283 9.5 4.4427 9.1254 3.6699 8.5 L 3.5 8.5 C 1.5669 8.5 0.4746 10.067 0.4746 12 Z" fill="#162938"/>			<path id="Ellipse" d="M 3 4 C 3 2.067 4.567 0.5 6.5 0.5 C 8.433 0.5 10 2.067 10 4 C 10 5.933 8.433 7.5 6.5 7.5 C 4.567 7.5 3 5.933 3 4 Z" fill="#162938"/>		</g>	</g></svg>