<?xml version="1.0" standalone="no"?><!-- Generator: Adobe Fireworks CS6, Export SVG Extension by Aaron Beall (http://fireworks.abeall.com) . Version: 0.6.1  --><!DOCTYPE svg PUBLIC "-//W3C//DTD SVG 1.1//EN" "http://www.w3.org/Graphics/SVG/1.1/DTD/svg11.dtd"><svg id="Untitled-Page%201" viewBox="0 0 22 22" style="background-color:#ffffff00" version="1.1"	xmlns="http://www.w3.org/2000/svg" xmlns:xlink="http://www.w3.org/1999/xlink" xml:space="preserve"	x="0px" y="0px" width="22px" height="22px">	<g id="Layer%201">		<g>			<path d="M 11 22 C 4.9347 22 0 17.0658 0 11 C 0 4.9347 4.9347 0 11 0 C 17.0657 0 22 4.9347 22 11 C 22 17.0658 17.0657 22 11 22 ZM 11 1.8334 C 5.9453 1.8334 1.8333 5.9453 1.8333 11 C 1.8333 16.0542 5.9453 20.1666 11 20.1666 C 16.0542 20.1666 20.1667 16.0542 20.1667 11 C 20.1667 5.9453 16.0542 1.8334 11 1.8334 Z" fill="#aaaaaa"/>			<g>				<path d="M 8.1699 9.1602 L 10.27 9.1602 C 10.27 8.8301 10.3398 8.5601 10.52 8.3599 C 10.6699 8.1699 10.9102 8.0601 11.2202 8.0601 C 11.52 8.0601 11.75 8.1602 11.9199 8.3301 C 12.0801 8.5 12.1699 8.73 12.1699 9.02 C 12.1699 9.4399 12 9.7202 11.6899 9.8701 C 11.3799 10.0298 10.8799 10.0898 10.2002 10.0898 L 9.3301 10.0898 L 9.3301 13 L 11.4199 13 L 11.4199 11.6602 C 12.3594 11.6602 13.0801 11.4502 13.5801 11.0298 C 14.0801 10.6201 14.3301 9.9399 14.3301 9 C 14.3301 8.0601 14.0293 7.3301 13.4502 6.7998 C 12.8799 6.27 12.1094 6 11.1699 6 C 10.2202 6 9.4702 6.3101 8.9399 6.9102 C 8.4102 7.5 8.1401 8.25 8.1699 9.1602 ZM 11.2798 15.7002 C 11.52 15.5195 11.6401 15.2695 11.6401 14.9707 C 11.6401 14.6895 11.52 14.4395 11.2798 14.2305 C 11.0498 14.0498 10.77 13.9395 10.4199 13.9395 C 10.0801 13.9395 9.7798 14.0498 9.5498 14.2305 C 9.3101 14.4395 9.2002 14.6895 9.2002 14.9707 C 9.2002 15.2695 9.3101 15.5195 9.5498 15.7002 C 9.7798 15.9102 10.0801 16 10.4199 16 C 10.77 16 11.0498 15.9102 11.2798 15.7002 Z" fill="#aaaaaa"/>			</g>		</g>	</g></svg>